<svg id="svg" version="1.1" xmlns="http://www.w3.org/2000/svg" xmlns:xlink="http://www.w3.org/1999/xlink" width="400" height="400" viewBox="0, 0, 400,400"><g id="svgg"><path id="path0" d="M256.550 133.683 C 256.453 133.838,256.110 133.864,255.787 133.740 C 255.464 133.616,255.200 133.669,255.200 133.858 C 255.200 134.047,254.705 134.222,254.100 134.248 C 251.416 134.359,249.600 134.574,249.600 134.779 C 249.600 134.901,248.573 135.054,247.317 135.120 C 246.062 135.185,244.796 135.437,244.504 135.680 C 244.211 135.923,243.435 136.106,242.779 136.087 C 242.123 136.068,241.689 136.221,241.816 136.427 C 241.943 136.632,241.584 136.800,241.018 136.800 C 240.452 136.800,239.677 136.954,239.295 137.143 C 238.913 137.331,238.060 137.761,237.400 138.097 C 236.578 138.516,235.910 138.598,235.280 138.359 C 234.687 138.135,234.447 138.152,234.605 138.408 C 234.740 138.627,234.524 138.911,234.125 139.040 C 232.005 139.726,231.232 140.128,231.426 140.442 C 231.544 140.634,231.380 140.691,231.061 140.568 C 230.742 140.446,230.360 140.541,230.213 140.779 C 230.065 141.018,229.773 141.107,229.562 140.977 C 229.352 140.847,229.230 140.979,229.290 141.270 C 229.363 141.620,229.075 141.754,228.445 141.666 C 227.920 141.592,227.380 141.682,227.245 141.866 C 226.920 142.309,224.781 143.592,223.900 143.871 C 223.515 143.993,223.200 144.252,223.200 144.447 C 223.200 144.641,222.930 144.800,222.600 144.800 C 222.270 144.800,222.000 145.001,222.000 145.247 C 222.000 145.492,221.659 145.604,221.242 145.495 C 220.719 145.358,220.350 145.591,220.051 146.248 C 219.812 146.772,219.370 147.200,219.067 147.200 C 218.764 147.200,217.996 147.683,217.358 148.274 C 216.721 148.864,216.200 149.302,216.200 149.248 C 216.200 149.193,215.886 149.269,215.502 149.416 C 215.119 149.563,214.904 149.845,215.026 150.042 C 215.148 150.239,214.987 150.400,214.669 150.400 C 214.350 150.400,213.665 150.938,213.145 151.596 C 212.625 152.254,212.020 152.797,211.800 152.803 C 211.261 152.817,208.200 155.949,208.200 156.486 C 208.200 156.721,207.849 157.112,207.421 157.356 C 206.449 157.910,203.201 161.099,203.198 161.502 C 203.192 162.609,199.635 165.647,198.842 165.223 C 198.379 164.975,198.000 164.611,198.000 164.414 C 198.000 164.218,197.685 163.742,197.300 163.357 C 196.915 162.972,196.600 162.517,196.600 162.345 C 196.600 162.173,196.041 161.620,195.358 161.116 C 194.675 160.612,194.067 160.020,194.007 159.800 C 193.716 158.729,193.469 158.400,192.957 158.400 C 192.651 158.400,192.400 158.258,192.400 158.083 C 192.400 157.671,190.182 155.392,187.959 153.519 C 186.991 152.705,185.210 151.206,184.000 150.188 C 181.894 148.418,177.194 145.188,176.538 145.061 C 176.366 145.027,175.788 144.595,175.254 144.100 C 174.720 143.605,174.039 143.200,173.742 143.200 C 173.444 143.200,173.200 143.020,173.200 142.800 C 173.200 142.580,172.750 142.400,172.200 142.400 C 171.650 142.400,171.200 142.220,171.200 142.000 C 171.200 141.780,170.928 141.600,170.595 141.600 C 169.938 141.600,168.612 140.931,167.500 140.038 C 166.899 139.555,166.798 139.555,166.787 140.038 C 166.778 140.428,166.595 140.363,166.187 139.824 C 165.864 139.396,165.600 139.176,165.600 139.333 C 165.600 139.490,165.113 139.299,164.518 138.909 C 163.922 138.519,163.382 138.245,163.318 138.300 C 163.027 138.547,161.972 138.368,162.137 138.100 C 162.239 137.935,161.716 137.756,160.976 137.701 C 160.235 137.647,158.987 137.242,158.202 136.801 C 157.418 136.361,156.151 136.000,155.388 136.000 C 154.625 136.000,154.000 135.857,154.000 135.682 C 154.000 135.507,153.344 135.319,152.543 135.265 C 151.742 135.211,150.792 135.010,150.432 134.817 C 150.072 134.625,148.433 134.479,146.789 134.494 C 145.145 134.509,143.293 134.314,142.674 134.060 C 141.326 133.509,141.084 133.488,141.367 133.947 C 141.488 134.142,140.778 134.143,139.740 133.949 C 138.042 133.632,137.798 133.695,136.590 134.755 L 135.280 135.905 135.253 143.852 C 135.238 148.224,135.220 152.025,135.213 152.300 C 135.206 152.575,134.739 152.800,134.176 152.800 C 133.613 152.800,133.253 152.962,133.375 153.160 C 133.593 153.512,131.247 153.959,128.338 154.119 C 127.534 154.164,126.961 154.336,127.064 154.503 C 127.166 154.669,126.924 154.922,126.525 155.064 C 126.126 155.206,125.530 155.540,125.200 155.807 C 124.870 156.074,124.098 156.412,123.484 156.558 C 122.870 156.704,122.466 156.983,122.586 157.177 C 122.706 157.372,122.309 157.750,121.702 158.018 C 120.551 158.527,120.260 161.836,121.259 163.062 C 121.928 163.884,121.639 252.869,120.965 253.628 C 119.669 255.085,122.967 259.497,124.389 258.210 C 124.760 257.874,125.589 257.594,126.231 257.587 C 126.874 257.580,127.732 257.323,128.139 257.015 C 128.545 256.707,129.133 256.553,129.444 256.672 C 129.755 256.792,130.241 256.698,130.522 256.465 C 130.804 256.231,132.017 256.107,133.217 256.189 C 134.670 256.288,135.065 256.233,134.400 256.023 L 133.400 255.708 134.400 255.301 C 134.997 255.059,135.671 255.036,136.072 255.246 C 136.529 255.486,136.945 255.397,137.372 254.971 C 137.954 254.388,138.181 254.515,138.034 255.339 C 138.001 255.526,138.451 255.303,139.034 254.845 C 139.617 254.386,140.274 254.122,140.494 254.258 C 141.102 254.634,147.600 254.694,147.600 254.324 C 147.600 254.146,147.870 254.000,148.200 254.000 C 148.530 254.000,148.803 254.225,148.806 254.500 C 148.811 254.871,148.900 254.861,149.154 254.461 C 149.563 253.815,152.299 253.584,153.348 254.107 C 153.760 254.312,153.999 254.322,153.879 254.128 C 153.760 253.935,154.133 253.797,154.709 253.822 C 155.285 253.847,155.810 254.033,155.877 254.234 C 155.944 254.435,157.182 254.539,158.628 254.465 C 160.464 254.370,161.461 254.498,161.929 254.889 C 162.341 255.233,163.334 255.413,164.500 255.357 C 165.545 255.306,166.400 255.440,166.400 255.656 C 166.400 255.871,166.568 255.944,166.772 255.817 C 166.977 255.691,167.247 255.753,167.372 255.955 C 167.498 256.158,168.320 256.227,169.200 256.109 C 170.540 255.930,170.800 256.009,170.800 256.596 C 170.800 257.082,170.954 257.188,171.300 256.940 C 171.733 256.631,172.631 256.612,174.700 256.871 C 174.975 256.905,175.200 257.083,175.200 257.267 C 175.200 257.450,175.836 257.600,176.613 257.600 C 177.472 257.600,178.112 257.825,178.246 258.175 C 178.367 258.491,178.722 258.651,179.035 258.531 C 179.650 258.295,183.200 259.219,183.200 259.615 C 183.200 259.747,184.100 260.100,185.200 260.400 C 186.300 260.700,187.200 261.092,187.200 261.272 C 187.200 261.453,187.549 261.600,187.976 261.600 C 188.403 261.600,188.867 261.785,189.007 262.011 C 189.146 262.236,189.562 262.371,189.930 262.311 C 190.324 262.246,190.552 262.426,190.484 262.749 C 190.410 263.095,190.591 263.212,190.973 263.066 C 191.314 262.935,191.801 263.150,192.089 263.559 C 192.370 263.959,192.972 264.403,193.428 264.547 C 194.623 264.924,196.835 266.631,196.528 266.939 C 196.384 267.082,197.657 267.200,199.357 267.200 C 201.057 267.200,202.355 267.050,202.242 266.868 C 202.129 266.685,202.658 266.291,203.418 265.993 C 204.178 265.695,204.800 265.304,204.800 265.125 C 204.800 264.946,205.070 264.800,205.400 264.800 C 205.730 264.800,206.000 264.640,206.000 264.443 C 206.000 264.247,206.437 263.977,206.972 263.843 C 207.507 263.709,208.185 263.374,208.479 263.099 C 209.400 262.241,211.476 261.209,211.744 261.477 C 211.885 261.618,212.000 261.547,212.000 261.319 C 212.000 261.091,212.855 260.684,213.900 260.415 C 215.785 259.930,217.159 259.433,218.495 258.753 C 218.877 258.559,219.537 258.400,219.961 258.400 C 220.386 258.400,220.796 258.212,220.873 257.982 C 221.054 257.439,224.400 257.125,224.400 257.650 C 224.400 257.869,224.583 257.934,224.807 257.796 C 225.030 257.658,225.110 257.378,224.983 257.173 C 224.849 256.955,225.437 256.887,226.406 257.009 C 227.475 257.143,227.969 257.073,227.805 256.808 C 227.347 256.067,227.989 255.566,228.824 256.013 C 229.381 256.311,229.600 256.299,229.600 255.971 C 229.600 255.720,229.883 255.623,230.229 255.756 C 230.575 255.889,231.250 255.780,231.729 255.514 C 232.208 255.248,232.698 255.056,232.817 255.087 C 234.469 255.524,236.389 255.469,235.998 254.997 C 235.626 254.550,236.271 254.474,239.784 254.553 C 242.113 254.605,244.110 254.557,244.221 254.446 C 244.953 253.714,250.949 253.697,251.844 254.424 C 252.466 254.929,252.512 254.926,252.218 254.400 C 251.945 253.912,251.983 253.893,252.421 254.300 C 253.086 254.917,253.745 254.959,253.375 254.360 C 253.189 254.059,253.339 254.028,253.852 254.263 C 254.263 254.452,255.680 254.592,257.000 254.574 C 258.410 254.554,259.756 254.768,260.263 255.092 C 260.738 255.395,261.219 255.493,261.333 255.308 C 261.695 254.723,264.800 255.222,264.800 255.866 C 264.800 256.222,264.989 256.330,265.289 256.145 C 266.053 255.673,268.407 255.843,268.929 256.407 C 269.297 256.806,269.278 256.848,268.838 256.597 C 268.471 256.388,268.371 256.430,268.550 256.718 C 268.702 256.965,269.437 257.082,270.211 256.983 C 271.256 256.849,271.600 256.953,271.600 257.402 C 271.600 258.043,272.612 258.228,272.967 257.654 C 273.235 257.220,275.200 257.566,275.200 258.047 C 275.200 258.241,275.646 258.400,276.191 258.400 C 277.237 258.400,278.664 256.750,278.228 256.045 C 278.095 255.831,278.131 255.566,278.307 255.458 C 278.483 255.349,278.585 253.581,278.533 251.530 C 278.482 249.478,278.451 228.540,278.466 205.000 C 278.496 155.088,278.552 158.947,277.775 157.300 C 277.284 156.257,276.925 156.000,275.958 156.000 C 275.295 156.000,274.857 155.832,274.984 155.626 C 275.111 155.420,274.627 155.195,273.908 155.126 C 273.188 155.057,272.630 154.820,272.667 154.600 C 272.703 154.380,272.073 154.172,271.267 154.137 C 269.264 154.052,267.103 153.582,266.500 153.101 C 266.149 152.821,265.998 152.866,265.994 153.251 C 265.990 153.608,265.885 153.650,265.694 153.371 C 265.532 153.135,265.085 152.825,264.700 152.683 C 263.947 152.406,263.913 151.830,263.941 139.857 C 263.947 137.029,263.858 134.809,263.742 134.924 C 263.482 135.185,261.987 133.944,262.183 133.629 C 262.261 133.503,261.064 133.400,259.525 133.400 C 257.985 133.400,256.646 133.527,256.550 133.683 M134.979 158.766 C 135.103 158.967,135.219 175.527,135.236 195.566 C 135.255 218.979,135.406 232.000,135.657 232.000 C 135.871 232.000,135.936 232.180,135.800 232.400 C 135.664 232.620,135.929 232.800,136.389 232.800 C 136.849 232.800,137.311 233.025,137.416 233.300 C 137.558 233.672,138.591 233.749,141.443 233.600 C 143.552 233.490,145.363 233.538,145.467 233.707 C 145.570 233.875,145.831 233.905,146.045 233.772 C 146.260 233.640,146.681 233.735,146.981 233.984 C 147.281 234.233,148.248 234.394,149.130 234.342 C 150.012 234.290,150.989 234.459,151.300 234.717 C 151.611 234.975,152.688 235.234,153.694 235.293 C 154.700 235.352,155.454 235.513,155.369 235.650 C 155.284 235.788,155.682 235.900,156.253 235.900 C 156.824 235.900,157.422 236.112,157.581 236.370 C 157.741 236.629,158.261 236.869,158.736 236.905 C 159.211 236.941,159.600 237.112,159.600 237.285 C 159.600 237.458,159.972 237.600,160.426 237.600 C 161.385 237.600,165.336 239.213,165.534 239.685 C 165.608 239.861,165.818 239.912,166.002 239.799 C 166.185 239.685,166.582 239.819,166.883 240.096 C 167.816 240.954,169.153 241.600,169.995 241.600 C 170.438 241.600,170.800 241.810,170.800 242.067 C 170.800 242.323,170.915 242.418,171.056 242.277 C 171.307 242.026,173.355 243.010,174.227 243.800 C 174.469 244.020,175.168 244.560,175.778 245.000 C 176.389 245.440,177.139 246.038,177.444 246.329 C 177.750 246.619,178.000 246.775,178.000 246.675 C 178.000 246.574,178.665 247.101,179.478 247.846 C 180.291 248.591,181.191 249.200,181.478 249.200 C 181.765 249.200,182.000 249.384,182.000 249.610 C 182.000 249.835,182.450 250.191,183.000 250.400 C 183.550 250.609,184.000 250.941,184.000 251.139 C 184.000 251.336,184.629 251.925,185.397 252.448 C 187.005 253.543,187.307 254.629,185.900 254.252 C 185.405 254.119,184.698 254.008,184.329 254.005 C 183.959 254.002,183.419 253.775,183.129 253.500 C 182.838 253.225,182.150 252.950,181.600 252.888 C 181.050 252.827,180.540 252.601,180.466 252.386 C 180.392 252.171,180.172 252.093,179.978 252.214 C 179.783 252.334,179.057 252.140,178.365 251.782 C 177.673 251.424,176.768 251.220,176.353 251.328 C 175.939 251.436,175.600 251.376,175.600 251.194 C 175.600 251.012,175.015 250.738,174.300 250.585 C 173.585 250.431,172.820 250.198,172.600 250.066 C 172.380 249.934,171.548 249.799,170.750 249.767 C 169.953 249.736,169.053 249.555,168.750 249.367 C 168.232 249.044,164.979 248.519,161.400 248.181 C 160.022 248.050,157.126 248.011,147.500 247.994 C 146.455 247.992,145.375 247.980,145.100 247.968 C 143.087 247.878,140.555 248.170,140.335 248.516 C 140.190 248.745,139.110 248.920,137.935 248.903 C 136.761 248.887,135.540 249.082,135.223 249.337 C 134.759 249.709,134.712 249.683,134.982 249.200 C 135.255 248.712,135.217 248.693,134.779 249.100 C 134.482 249.375,133.601 249.606,132.820 249.613 C 132.039 249.620,131.077 249.871,130.681 250.170 C 130.286 250.470,129.611 250.623,129.181 250.511 C 128.751 250.398,128.400 250.507,128.400 250.753 C 128.400 251.481,127.261 251.262,126.827 250.450 C 126.606 250.037,126.497 249.137,126.584 248.450 C 126.671 247.762,126.564 247.200,126.347 247.200 C 126.128 247.200,126.095 246.978,126.272 246.700 C 126.677 246.066,126.705 168.400,126.300 168.400 C 126.135 168.400,126.000 168.040,126.000 167.600 C 126.000 167.160,126.140 166.800,126.311 166.800 C 126.481 166.800,126.590 165.855,126.552 164.700 C 126.445 161.469,126.697 160.800,128.020 160.800 C 128.643 160.800,129.264 160.620,129.400 160.400 C 129.536 160.180,130.076 160.000,130.600 160.000 C 131.124 160.000,131.664 159.820,131.800 159.600 C 131.936 159.380,132.397 159.200,132.824 159.200 C 133.251 159.200,133.600 159.020,133.600 158.800 C 133.600 158.299,134.674 158.272,134.979 158.766 M266.262 159.400 C 267.051 159.730,268.126 160.000,268.649 160.000 C 269.185 160.000,269.556 160.213,269.500 160.487 C 269.435 160.804,269.831 160.936,270.632 160.864 C 272.347 160.711,273.876 162.866,272.643 163.700 C 272.331 163.911,272.360 164.103,272.743 164.350 C 273.079 164.567,273.132 164.795,272.882 164.949 C 272.661 165.086,272.497 165.817,272.518 166.574 C 272.540 167.331,272.686 167.870,272.844 167.773 C 273.002 167.675,273.192 168.744,273.266 170.148 C 273.378 172.285,273.302 172.664,272.800 172.475 C 272.285 172.282,272.278 172.346,272.749 172.925 C 273.163 173.434,273.186 173.735,272.845 174.146 C 272.355 174.736,272.405 177.642,272.900 177.337 C 273.065 177.236,273.200 177.343,273.200 177.576 C 273.200 177.809,273.020 178.000,272.800 178.000 C 272.580 178.000,272.400 178.191,272.400 178.424 C 272.400 178.657,272.548 178.756,272.729 178.644 C 273.455 178.195,273.638 220.147,272.916 221.591 C 272.595 222.233,272.558 222.718,272.811 222.971 C 273.363 223.523,273.295 226.945,272.720 227.520 C 272.347 227.893,272.347 228.000,272.720 228.000 C 273.356 228.000,273.339 229.085,272.700 229.308 C 272.342 229.433,272.428 229.754,273.000 230.435 C 273.599 231.147,273.624 231.250,273.100 230.844 C 272.263 230.196,272.183 230.712,272.950 231.811 C 273.380 232.426,273.484 234.360,273.423 240.600 C 273.380 245.000,273.472 248.780,273.627 249.000 C 273.781 249.220,273.754 249.805,273.567 250.300 C 273.202 251.262,271.476 251.570,270.976 250.762 C 270.827 250.521,270.097 250.395,269.353 250.481 C 268.609 250.568,268.000 250.504,268.000 250.338 C 268.000 250.077,266.359 249.679,264.400 249.465 C 264.070 249.429,263.685 249.242,263.545 249.050 C 263.405 248.857,262.088 248.705,260.618 248.711 C 258.613 248.720,257.888 248.575,257.717 248.128 C 257.531 247.643,257.426 247.632,257.150 248.066 C 256.877 248.498,256.811 248.500,256.806 248.076 C 256.803 247.788,256.638 247.653,256.440 247.775 C 255.993 248.051,253.031 248.119,245.800 248.017 C 242.720 247.974,239.840 248.059,239.400 248.207 C 238.754 248.424,238.715 248.392,239.200 248.044 C 239.719 247.671,239.705 247.611,239.100 247.606 C 238.715 247.603,238.400 247.870,238.400 248.200 C 238.400 248.752,236.347 249.077,234.470 248.823 C 234.179 248.784,233.729 248.918,233.470 249.121 C 233.212 249.324,231.890 249.470,230.534 249.445 C 228.804 249.413,228.175 249.529,228.427 249.833 C 228.797 250.278,228.641 250.328,226.510 250.442 C 225.910 250.474,225.010 250.768,224.510 251.096 C 224.009 251.424,223.600 251.559,223.600 251.397 C 223.600 251.235,223.357 251.304,223.060 251.551 C 222.762 251.797,221.997 252.032,221.360 252.072 C 220.722 252.112,219.960 252.327,219.667 252.549 C 219.373 252.771,218.833 252.978,218.467 253.008 C 217.347 253.100,214.800 254.139,214.800 254.504 C 214.800 254.693,214.626 254.739,214.413 254.608 C 214.200 254.476,213.192 254.748,212.174 255.212 C 209.965 256.218,208.914 256.048,209.687 254.809 C 209.965 254.364,210.289 254.000,210.407 254.000 C 210.525 254.000,211.781 252.907,213.197 251.571 C 214.614 250.236,216.275 248.847,216.887 248.485 C 217.499 248.123,218.000 247.686,218.000 247.514 C 218.000 247.341,218.270 247.200,218.600 247.200 C 218.930 247.200,219.202 246.975,219.205 246.700 C 219.209 246.265,220.599 245.133,222.766 243.800 C 223.124 243.580,223.953 243.020,224.608 242.556 C 225.264 242.091,226.463 241.496,227.274 241.233 C 228.085 240.970,228.805 240.599,228.874 240.408 C 228.943 240.216,229.257 240.002,229.572 239.930 C 229.886 239.859,230.459 239.545,230.846 239.233 C 231.764 238.492,235.936 236.800,236.844 236.800 C 237.234 236.800,237.664 236.620,237.800 236.400 C 237.936 236.180,238.397 236.000,238.824 236.000 C 239.251 236.000,239.600 235.858,239.600 235.685 C 239.600 235.512,239.980 235.342,240.445 235.307 C 240.909 235.272,241.584 234.987,241.945 234.675 C 242.305 234.362,243.050 234.148,243.600 234.198 C 244.150 234.249,244.715 234.111,244.856 233.892 C 244.997 233.673,245.807 233.469,246.656 233.437 C 247.505 233.406,248.426 233.238,248.702 233.065 C 249.420 232.615,252.800 232.530,252.800 232.962 C 252.800 233.161,253.122 233.032,253.516 232.676 C 254.312 231.955,257.869 231.701,260.700 232.162 C 261.691 232.323,262.400 232.282,262.400 232.063 C 262.400 231.856,262.857 231.572,263.416 231.432 C 263.975 231.291,264.322 230.997,264.186 230.778 C 264.009 230.491,263.824 165.740,263.982 159.500 C 264.004 158.644,264.410 158.626,266.262 159.400 M127.328 190.000 C 127.328 191.430,127.401 192.015,127.489 191.300 C 127.578 190.585,127.578 189.415,127.489 188.700 C 127.401 187.985,127.328 188.570,127.328 190.000 M127.293 196.800 C 127.293 197.570,127.375 197.885,127.476 197.500 C 127.576 197.115,127.576 196.485,127.476 196.100 C 127.375 195.715,127.293 196.030,127.293 196.800 M120.520 236.000 C 120.520 237.210,120.595 237.705,120.687 237.100 C 120.778 236.495,120.778 235.505,120.687 234.900 C 120.595 234.295,120.520 234.790,120.520 236.000 " stroke="none" fill="#f4f4fc" fill-rule="evenodd"></path><path id="path1" d="M135.753 133.021 C 135.890 133.379,135.823 133.538,135.592 133.395 C 134.822 132.919,134.080 134.285,133.835 136.630 C 133.038 144.270,133.108 149.151,134.006 148.596 C 134.238 148.453,134.231 148.722,133.988 149.280 C 133.767 149.786,133.479 150.515,133.347 150.900 C 133.215 151.285,132.928 151.600,132.711 151.600 C 132.493 151.600,132.402 151.828,132.509 152.106 C 132.650 152.474,132.283 152.572,131.164 152.465 C 130.158 152.369,129.415 152.528,129.019 152.924 C 128.685 153.257,128.052 153.434,127.607 153.318 C 127.153 153.199,126.800 153.302,126.800 153.553 C 126.800 154.186,129.127 154.275,129.600 153.660 C 129.710 153.517,130.340 153.372,131.000 153.337 C 131.660 153.303,132.830 153.115,133.600 152.919 L 135.000 152.564 135.009 145.982 C 135.025 135.430,135.043 135.254,136.187 134.733 C 136.731 134.485,137.071 134.114,136.943 133.908 C 136.803 133.682,138.297 133.583,140.722 133.659 C 142.928 133.728,144.649 133.920,144.547 134.086 C 144.444 134.252,145.700 134.374,147.338 134.357 C 148.975 134.340,150.682 134.523,151.131 134.763 C 151.580 135.003,152.579 135.200,153.350 135.200 C 154.122 135.200,154.872 135.392,155.017 135.627 C 155.162 135.862,155.510 135.967,155.791 135.859 C 156.071 135.751,156.793 135.919,157.396 136.232 C 157.998 136.544,158.831 136.800,159.246 136.800 C 159.661 136.800,160.000 136.951,160.000 137.136 C 160.000 137.320,160.532 137.440,161.182 137.401 C 161.856 137.361,162.453 137.561,162.570 137.865 C 162.683 138.159,163.054 138.400,163.396 138.400 C 163.738 138.400,165.184 138.929,166.609 139.575 C 168.034 140.221,169.206 140.626,169.213 140.475 C 169.220 140.324,169.473 140.527,169.776 140.927 C 170.079 141.326,170.439 141.622,170.575 141.583 C 170.711 141.544,171.182 141.607,171.621 141.721 C 172.059 141.836,172.549 141.958,172.709 141.993 C 172.869 142.028,173.315 142.342,173.700 142.690 C 174.085 143.039,174.406 143.161,174.413 142.962 C 174.420 142.763,174.645 142.877,174.913 143.215 C 175.181 143.553,176.255 144.326,177.300 144.932 C 178.345 145.538,179.200 146.217,179.200 146.440 C 179.200 146.664,179.356 146.751,179.547 146.633 C 179.737 146.515,180.215 146.775,180.609 147.209 C 181.002 147.644,181.521 148.003,181.762 148.006 C 182.003 148.009,182.957 148.684,183.882 149.506 C 188.411 153.530,190.133 155.025,190.547 155.294 C 190.796 155.456,190.882 155.591,190.739 155.594 C 190.595 155.597,191.765 156.918,193.339 158.529 C 196.931 162.205,198.400 163.894,198.400 164.348 C 198.400 165.706,199.571 165.508,200.845 163.933 C 201.590 163.012,202.777 161.564,203.481 160.714 C 204.196 159.852,204.664 158.910,204.539 158.584 C 204.166 157.613,203.713 157.937,202.000 160.400 C 201.464 161.170,200.840 161.992,200.613 162.228 C 200.077 162.783,198.324 163.246,198.630 162.752 C 198.757 162.546,198.262 161.819,197.530 161.135 C 196.799 160.451,196.192 159.691,196.182 159.446 C 196.172 159.201,195.933 159.049,195.652 159.110 C 195.371 159.170,195.255 159.034,195.396 158.807 C 195.746 158.240,194.516 157.081,193.941 157.436 C 193.653 157.614,193.584 157.549,193.760 157.265 C 194.130 156.666,192.134 154.670,191.535 155.040 C 191.250 155.216,191.186 155.147,191.365 154.857 C 191.651 154.394,186.679 149.200,185.950 149.200 C 185.753 149.200,185.028 148.660,184.337 148.000 C 183.646 147.340,182.838 146.800,182.541 146.800 C 182.243 146.800,182.000 146.650,182.000 146.468 C 182.000 146.285,181.505 145.880,180.900 145.568 C 180.295 145.255,179.451 144.685,179.025 144.300 C 178.598 143.915,178.013 143.600,177.725 143.600 C 177.436 143.600,177.200 143.420,177.200 143.200 C 177.200 142.980,176.922 142.800,176.583 142.800 C 176.244 142.800,175.580 142.440,175.108 142.000 C 174.636 141.560,174.019 141.200,173.737 141.200 C 173.455 141.200,172.565 140.830,171.760 140.377 C 170.954 139.925,170.049 139.649,169.748 139.765 C 169.446 139.880,169.200 139.809,169.200 139.606 C 169.200 139.073,166.518 137.880,166.017 138.189 C 165.785 138.333,165.486 138.169,165.354 137.825 C 165.222 137.481,164.774 137.200,164.357 137.200 C 163.941 137.200,163.600 137.020,163.600 136.800 C 163.600 136.580,163.060 136.400,162.400 136.400 C 161.740 136.400,161.200 136.220,161.200 136.000 C 161.200 135.780,160.660 135.600,160.000 135.600 C 159.340 135.600,158.800 135.398,158.800 135.150 C 158.800 134.866,158.369 134.786,157.635 134.933 C 156.866 135.087,156.305 134.968,155.986 134.583 C 155.720 134.262,154.905 134.000,154.175 134.000 C 153.445 134.000,152.736 133.820,152.600 133.600 C 152.464 133.380,151.294 133.200,150.000 133.200 C 148.706 133.200,147.536 133.020,147.400 132.800 C 146.945 132.064,135.469 132.281,135.753 133.021 M252.200 132.800 C 252.064 133.020,250.714 133.200,249.200 133.200 C 247.686 133.200,246.336 133.380,246.200 133.600 C 246.064 133.820,245.344 134.000,244.600 134.000 C 243.856 134.000,243.136 134.180,243.000 134.400 C 242.864 134.620,242.223 134.800,241.576 134.800 C 240.929 134.800,240.400 134.980,240.400 135.200 C 240.400 135.420,239.860 135.600,239.200 135.600 C 238.540 135.600,238.000 135.780,238.000 136.000 C 238.000 136.220,237.460 136.400,236.800 136.400 C 236.140 136.400,235.600 136.580,235.600 136.800 C 235.600 137.020,235.161 137.200,234.624 137.200 C 234.087 137.200,233.536 137.380,233.400 137.600 C 233.264 137.820,232.803 138.000,232.376 138.000 C 231.949 138.000,231.600 138.253,231.600 138.563 C 231.600 138.928,231.320 139.052,230.800 138.916 C 230.353 138.799,230.000 138.904,230.000 139.153 C 230.000 139.399,229.634 139.600,229.187 139.600 C 228.741 139.600,228.272 139.869,228.146 140.198 C 228.019 140.526,227.762 140.700,227.574 140.584 C 227.386 140.468,226.910 140.546,226.516 140.757 C 226.122 140.969,225.474 141.243,225.075 141.368 C 224.676 141.492,224.461 141.776,224.598 141.997 C 224.963 142.587,226.229 142.489,226.777 141.828 C 227.038 141.513,227.600 141.323,228.026 141.405 C 228.514 141.499,228.800 141.332,228.800 140.953 C 228.800 140.623,228.964 140.454,229.164 140.578 C 229.699 140.908,230.835 140.381,230.558 139.931 C 230.427 139.720,230.563 139.580,230.860 139.621 C 231.917 139.766,232.444 139.594,232.192 139.186 C 232.031 138.926,232.326 138.843,232.989 138.964 C 233.634 139.081,234.120 138.954,234.241 138.637 C 234.359 138.329,234.837 138.195,235.420 138.306 C 236.028 138.422,236.400 138.308,236.400 138.004 C 236.400 137.735,236.653 137.611,236.961 137.730 C 237.270 137.848,237.855 137.693,238.261 137.385 C 238.668 137.077,239.411 136.820,239.913 136.813 C 240.414 136.806,240.918 136.557,241.033 136.259 C 241.164 135.918,241.624 135.792,242.283 135.918 C 242.909 136.038,243.500 135.894,243.763 135.559 C 244.003 135.251,244.920 134.968,245.800 134.928 C 248.697 134.799,253.715 134.060,253.960 133.727 C 254.419 133.102,262.330 133.240,262.574 133.877 C 262.695 134.193,262.963 134.347,263.168 134.220 C 263.909 133.762,264.124 135.935,264.125 143.903 C 264.126 152.884,264.186 153.102,266.466 152.471 C 267.647 152.144,267.708 152.065,267.000 151.773 C 265.421 151.125,265.106 150.484,265.387 148.489 C 265.926 144.648,266.063 139.103,265.629 138.669 C 265.393 138.433,265.194 137.421,265.187 136.420 C 265.174 134.453,264.500 133.200,263.456 133.200 C 263.095 133.200,262.800 133.020,262.800 132.800 C 262.800 132.554,260.808 132.400,257.624 132.400 C 254.604 132.400,252.344 132.567,252.200 132.800 M223.600 142.400 C 223.600 142.620,223.240 142.800,222.800 142.800 C 222.360 142.800,222.000 142.959,222.000 143.153 C 222.000 143.348,221.622 143.606,221.160 143.726 C 220.625 143.866,220.429 144.124,220.622 144.435 C 220.813 144.745,220.757 144.821,220.467 144.641 C 220.216 144.486,219.614 144.728,219.130 145.180 C 218.645 145.631,218.079 146.000,217.871 146.000 C 217.664 146.000,217.203 146.316,216.847 146.703 C 216.491 147.089,215.701 147.662,215.091 147.975 C 214.481 148.289,214.046 148.737,214.124 148.972 C 214.297 149.492,215.611 149.549,215.573 149.035 C 215.558 148.835,216.067 148.451,216.704 148.184 C 217.341 147.916,218.478 147.180,219.231 146.548 C 219.984 145.917,221.623 144.864,222.874 144.210 C 224.612 143.301,225.048 142.899,224.725 142.510 C 224.220 141.901,223.600 141.841,223.600 142.400 M212.900 149.798 C 212.625 150.111,212.400 150.548,212.400 150.771 C 212.400 150.993,212.175 151.096,211.900 150.999 C 211.118 150.723,209.952 151.810,210.236 152.549 C 210.373 152.907,210.611 153.200,210.764 153.200 C 211.297 153.200,214.380 149.891,214.167 149.547 C 213.867 149.061,213.482 149.137,212.900 149.798 M209.337 152.980 C 209.493 153.388,209.367 153.486,208.910 153.310 C 208.430 153.126,208.326 153.230,208.510 153.710 C 208.686 154.167,208.588 154.293,208.180 154.137 C 207.473 153.866,207.397 154.643,208.100 154.955 C 208.375 155.077,208.240 155.137,207.800 155.088 C 207.316 155.035,207.043 155.209,207.110 155.530 C 207.170 155.821,207.069 155.966,206.885 155.853 C 206.289 155.484,204.367 157.450,204.637 158.152 C 204.954 158.979,205.260 158.969,206.094 158.100 C 206.463 157.715,207.391 156.779,208.157 156.021 C 208.923 155.262,209.443 154.469,209.313 154.259 C 209.183 154.048,209.272 153.997,209.511 154.145 C 209.749 154.292,210.048 154.246,210.174 154.043 C 210.479 153.549,210.018 152.400,209.514 152.400 C 209.294 152.400,209.214 152.661,209.337 152.980 M267.200 152.800 C 266.487 153.261,266.918 153.359,269.134 153.239 C 269.910 153.197,270.367 153.329,270.228 153.555 C 269.906 154.075,271.399 154.518,272.402 154.199 C 272.913 154.037,273.283 154.151,273.422 154.513 C 273.559 154.871,274.004 155.012,274.620 154.894 C 275.187 154.786,275.600 154.895,275.600 155.153 C 275.600 155.399,276.050 155.600,276.600 155.600 C 277.222 155.600,277.600 155.827,277.600 156.200 C 277.600 156.530,277.780 156.800,278.000 156.800 C 278.220 156.800,278.400 157.340,278.400 158.000 C 278.400 158.660,278.583 159.200,278.808 159.200 C 279.049 159.200,279.107 159.633,278.949 160.261 C 278.803 160.844,278.664 182.867,278.641 209.199 C 278.609 246.685,278.492 257.207,278.103 257.675 C 277.830 258.004,277.687 258.354,277.785 258.451 C 277.883 258.549,277.261 258.637,276.404 258.647 C 275.496 258.658,274.877 258.484,274.922 258.233 C 274.967 257.982,274.327 257.799,273.400 257.798 C 272.520 257.798,271.440 257.597,271.000 257.352 C 270.560 257.108,269.980 256.987,269.710 257.084 C 269.441 257.181,268.852 257.002,268.401 256.686 C 267.931 256.357,266.989 256.178,266.191 256.266 C 265.426 256.350,264.800 256.259,264.800 256.064 C 264.800 255.869,264.395 255.740,263.900 255.778 C 263.405 255.816,262.820 255.722,262.600 255.570 C 262.028 255.175,259.562 255.616,259.840 256.064 C 259.967 256.270,261.035 256.399,262.213 256.352 C 263.426 256.302,264.608 256.474,264.937 256.748 C 265.257 257.013,266.166 257.187,266.958 257.134 C 267.749 257.080,268.613 257.253,268.878 257.518 C 269.143 257.783,269.853 258.000,270.456 258.000 C 271.059 258.000,271.675 258.197,271.824 258.438 C 271.973 258.680,272.617 258.800,273.255 258.707 C 273.924 258.608,274.602 258.761,274.857 259.068 C 275.701 260.086,278.269 259.606,279.885 258.129 C 280.542 257.527,280.657 158.000,280.000 158.000 C 279.780 158.000,279.600 157.722,279.600 157.382 C 279.600 156.501,277.783 154.800,276.842 154.800 C 276.405 154.800,275.925 154.603,275.777 154.362 C 275.628 154.122,275.078 154.006,274.556 154.106 C 274.033 154.206,273.402 154.043,273.154 153.744 C 272.905 153.445,272.285 153.200,271.775 153.200 C 271.265 153.200,270.736 153.020,270.600 152.800 C 270.285 152.290,267.988 152.290,267.200 152.800 M124.400 154.427 C 124.400 154.632,124.080 154.800,123.688 154.800 C 123.297 154.800,122.717 155.160,122.400 155.600 C 122.083 156.040,121.599 156.400,121.326 156.400 C 120.752 156.400,119.840 157.866,119.761 158.915 C 119.732 159.309,119.909 159.562,120.154 159.478 C 120.399 159.394,120.544 158.939,120.475 158.466 C 120.383 157.826,120.510 157.667,120.975 157.846 C 121.319 157.978,121.600 157.882,121.600 157.633 C 121.600 157.384,122.061 157.005,122.624 156.791 C 123.247 156.554,123.536 156.220,123.362 155.939 C 123.185 155.652,123.252 155.585,123.537 155.761 C 123.791 155.918,124.399 155.766,124.888 155.423 C 125.378 155.080,126.109 154.800,126.513 154.800 C 126.917 154.800,127.153 154.648,127.038 154.461 C 126.750 153.995,124.400 153.964,124.400 154.427 M133.400 159.200 C 133.264 159.420,132.793 159.600,132.353 159.600 C 131.913 159.600,131.652 159.761,131.774 159.958 C 131.895 160.154,131.591 160.317,131.097 160.320 C 129.308 160.329,127.149 161.353,127.343 162.100 C 127.443 162.485,127.340 162.800,127.114 162.800 C 126.839 162.800,126.843 162.970,127.127 163.312 C 127.361 163.594,127.610 164.809,127.681 166.012 L 127.810 168.200 128.126 165.800 C 128.644 161.866,128.736 161.600,129.474 161.884 C 129.947 162.065,130.075 161.972,129.916 161.558 C 129.752 161.131,129.972 160.998,130.747 161.056 C 131.326 161.100,132.115 161.150,132.500 161.168 C 133.161 161.198,133.200 163.097,133.200 195.176 C 133.200 217.396,133.338 229.238,133.600 229.400 C 133.820 229.536,134.006 230.312,134.013 231.124 C 134.027 232.732,134.755 234.000,135.664 234.000 C 135.981 234.000,136.411 234.165,136.620 234.366 C 137.013 234.745,139.730 235.070,145.600 235.441 C 147.470 235.560,149.171 235.824,149.380 236.028 C 149.589 236.233,150.523 236.400,151.456 236.400 C 152.389 236.400,153.264 236.580,153.400 236.800 C 153.536 237.020,154.076 237.200,154.600 237.200 C 155.124 237.200,155.664 237.380,155.800 237.600 C 155.936 237.820,156.476 238.000,157.000 238.000 C 157.524 238.000,158.064 238.180,158.200 238.400 C 158.336 238.620,158.887 238.800,159.424 238.800 C 159.961 238.800,160.400 239.001,160.400 239.247 C 160.400 239.505,160.813 239.614,161.380 239.506 C 161.979 239.391,162.441 239.529,162.567 239.859 C 162.682 240.157,163.141 240.400,163.587 240.400 C 164.034 240.400,164.400 240.580,164.400 240.800 C 164.400 241.020,164.760 241.200,165.200 241.200 C 165.640 241.200,166.000 241.380,166.000 241.600 C 166.000 241.820,166.360 242.000,166.800 242.000 C 167.240 242.000,167.600 242.180,167.600 242.400 C 167.600 242.620,167.949 242.800,168.376 242.800 C 168.803 242.800,169.264 242.980,169.400 243.200 C 169.536 243.420,169.958 243.600,170.338 243.600 C 170.718 243.600,171.832 244.315,172.814 245.189 C 173.797 246.062,174.748 246.782,174.929 246.789 C 175.306 246.802,176.400 247.830,176.400 248.171 C 176.400 248.577,171.256 248.414,171.000 248.000 C 170.864 247.780,169.874 247.600,168.800 247.600 C 167.726 247.600,166.736 247.420,166.600 247.200 C 166.464 246.980,164.779 246.800,162.856 246.800 C 160.933 246.800,159.172 246.612,158.942 246.382 C 158.194 245.634,138.255 246.420,137.420 247.231 C 137.211 247.434,136.302 247.600,135.400 247.600 C 134.498 247.600,133.589 247.767,133.380 247.971 C 133.171 248.176,132.370 248.401,131.600 248.471 C 130.787 248.546,130.239 248.799,130.292 249.075 C 130.404 249.657,128.665 249.394,128.466 248.799 C 128.028 247.483,126.988 247.721,126.994 249.136 C 126.999 250.193,127.167 250.584,127.600 250.544 C 128.671 250.443,130.152 250.099,132.600 249.383 C 133.920 248.997,135.713 248.708,136.584 248.741 C 138.379 248.809,139.700 248.486,139.428 248.046 C 139.328 247.883,140.090 247.772,141.123 247.799 C 142.155 247.826,143.695 247.697,144.545 247.512 C 145.585 247.286,146.271 247.327,146.645 247.637 C 147.054 247.977,147.200 247.979,147.200 247.645 C 147.200 247.345,148.252 247.193,150.300 247.198 C 152.005 247.202,153.670 247.183,154.000 247.156 C 154.330 247.129,155.140 247.227,155.800 247.375 C 156.460 247.522,158.530 247.747,160.400 247.873 C 162.270 248.000,163.980 248.230,164.200 248.383 C 164.420 248.537,165.635 248.649,166.900 248.631 C 168.165 248.614,169.200 248.727,169.200 248.882 C 169.200 249.037,169.875 249.279,170.700 249.420 C 172.355 249.702,174.565 250.324,175.800 250.855 C 176.240 251.044,177.000 251.254,177.490 251.322 C 177.979 251.390,178.504 251.571,178.656 251.723 C 178.809 251.875,179.353 252.000,179.867 252.000 C 180.380 252.000,180.800 252.153,180.800 252.339 C 180.800 252.526,181.308 252.693,181.928 252.710 C 182.549 252.728,183.713 253.130,184.515 253.603 C 187.700 255.482,187.184 253.890,183.800 251.397 C 182.920 250.749,180.909 249.179,179.331 247.909 C 177.754 246.639,176.360 245.600,176.235 245.600 C 176.110 245.600,175.172 244.963,174.151 244.184 C 171.954 242.506,169.677 241.486,168.701 241.742 C 168.315 241.843,168.098 241.765,168.219 241.570 C 168.340 241.374,167.710 240.899,166.819 240.513 C 165.929 240.127,165.200 239.663,165.200 239.482 C 165.200 239.301,165.049 239.246,164.864 239.360 C 164.679 239.475,163.889 239.225,163.108 238.807 C 162.327 238.388,161.578 238.155,161.444 238.289 C 161.310 238.424,161.200 238.323,161.200 238.067 C 161.200 237.810,160.744 237.600,160.186 237.600 C 159.628 237.600,158.716 237.302,158.160 236.937 C 157.603 236.572,156.532 236.236,155.779 236.191 C 155.027 236.145,154.148 235.888,153.825 235.621 C 153.502 235.353,152.915 235.207,152.519 235.296 C 152.124 235.386,151.348 235.238,150.796 234.969 C 150.243 234.699,148.893 234.464,147.796 234.447 C 146.698 234.430,144.900 234.270,143.800 234.093 C 142.700 233.915,140.720 233.777,139.400 233.785 C 136.858 233.801,135.219 232.827,135.185 231.279 C 135.176 230.906,135.177 214.554,135.185 194.943 C 135.199 162.786,135.138 159.262,134.567 159.043 C 133.738 158.724,133.690 158.731,133.400 159.200 M264.235 159.544 C 263.559 160.636,264.126 227.200,264.811 227.200 C 265.877 227.200,266.000 223.660,266.000 192.967 L 266.000 161.253 267.069 161.127 C 267.657 161.057,268.221 160.748,268.323 160.439 C 268.454 160.040,268.269 159.941,267.679 160.095 C 267.178 160.226,266.768 160.093,266.638 159.756 C 266.406 159.150,264.578 158.989,264.235 159.544 M119.636 163.644 C 119.598 165.428,119.754 167.455,119.983 168.148 C 120.471 169.626,120.756 182.780,120.306 183.058 C 119.894 183.313,119.912 198.400,120.325 198.400 C 120.504 198.400,120.638 201.370,120.623 205.000 C 120.609 208.630,120.732 211.600,120.898 211.600 C 121.063 211.600,121.201 201.565,121.204 189.300 C 121.207 177.035,121.288 166.429,121.382 165.730 C 121.487 164.954,121.341 164.283,121.005 164.004 C 120.703 163.754,120.531 163.156,120.624 162.676 C 120.819 161.661,120.488 160.400,120.026 160.400 C 119.850 160.400,119.674 161.860,119.636 163.644 M270.253 161.081 C 269.795 161.538,269.988 161.904,270.800 162.116 C 272.050 162.443,272.065 248.985,270.815 249.312 C 270.383 249.425,269.821 249.266,269.566 248.959 C 269.041 248.327,265.733 248.201,264.821 248.779 C 264.001 249.297,266.018 249.767,267.813 249.475 C 268.668 249.337,269.148 249.411,269.091 249.673 C 269.041 249.905,269.293 250.143,269.650 250.204 C 270.008 250.265,270.840 250.433,271.498 250.578 C 272.713 250.844,273.705 249.559,272.743 248.965 C 272.515 248.824,272.571 248.470,272.881 248.088 C 273.270 247.607,273.275 247.522,272.900 247.747 C 272.272 248.124,272.223 246.518,272.816 244.959 C 273.129 244.136,273.104 243.786,272.716 243.539 C 272.432 243.359,272.380 243.209,272.600 243.205 C 272.821 243.202,273.002 242.125,273.004 240.799 C 273.005 239.480,272.870 238.400,272.704 238.400 C 272.537 238.400,272.400 237.950,272.400 237.400 C 272.400 236.850,272.535 236.400,272.700 236.400 C 272.865 236.400,273.028 235.922,273.062 235.338 C 273.106 234.579,273.022 234.437,272.768 234.839 C 272.523 235.224,272.410 234.931,272.406 233.900 C 272.403 233.054,272.596 232.400,272.849 232.400 C 273.163 232.400,273.173 232.250,272.883 231.900 C 272.345 231.252,272.277 223.174,272.798 221.805 C 273.063 221.107,273.064 220.837,272.799 221.001 C 272.338 221.286,272.304 215.882,272.736 211.133 C 272.890 209.447,272.877 208.152,272.708 208.257 C 272.539 208.362,272.400 206.637,272.400 204.424 C 272.400 201.719,272.547 200.400,272.848 200.400 C 273.265 200.400,273.161 194.978,272.628 188.800 C 272.542 187.810,272.658 186.775,272.885 186.500 C 273.174 186.150,273.159 186.000,272.835 186.000 C 272.501 186.000,272.487 185.784,272.786 185.226 C 273.315 184.237,273.325 182.676,272.800 183.000 C 272.541 183.160,272.402 181.439,272.406 178.124 C 272.410 174.668,272.538 173.195,272.800 173.600 C 273.013 173.930,273.191 174.005,273.194 173.767 C 273.197 173.528,273.065 173.198,272.900 173.033 C 272.735 172.868,272.589 170.183,272.575 167.067 C 272.561 163.778,272.393 161.425,272.175 161.461 C 271.969 161.494,271.509 161.365,271.153 161.175 C 270.797 160.984,270.392 160.942,270.253 161.081 M126.901 177.800 C 126.905 178.680,126.987 178.993,127.083 178.495 C 127.179 177.998,127.175 177.278,127.075 176.895 C 126.975 176.513,126.896 176.920,126.901 177.800 M126.800 186.800 C 126.800 187.240,126.980 187.600,127.200 187.600 C 127.420 187.600,127.600 187.240,127.600 186.800 C 127.600 186.360,127.420 186.000,127.200 186.000 C 126.980 186.000,126.800 186.360,126.800 186.800 M126.800 193.200 C 126.800 193.640,126.980 194.000,127.200 194.000 C 127.420 194.000,127.600 193.640,127.600 193.200 C 127.600 192.760,127.420 192.400,127.200 192.400 C 126.980 192.400,126.800 192.760,126.800 193.200 M127.115 199.200 C 127.212 199.860,127.360 200.400,127.445 200.400 C 127.530 200.400,127.600 199.860,127.600 199.200 C 127.600 198.540,127.451 198.000,127.269 198.000 C 127.087 198.000,127.018 198.540,127.115 199.200 M126.909 212.400 C 126.909 213.390,126.987 213.795,127.082 213.300 C 127.178 212.805,127.178 211.995,127.082 211.500 C 126.987 211.005,126.909 211.410,126.909 212.400 M120.756 212.200 C 120.377 212.834,120.389 217.200,120.769 217.200 C 120.958 217.200,121.178 216.615,121.257 215.900 C 121.436 214.288,121.080 211.657,120.756 212.200 M120.629 225.500 C 120.668 234.651,120.927 235.254,121.186 226.800 C 121.398 219.862,121.354 218.800,120.857 218.800 C 120.716 218.801,120.613 221.816,120.629 225.500 M264.245 229.378 C 264.347 230.854,264.234 231.199,263.584 231.405 C 263.153 231.542,262.800 231.815,262.800 232.012 C 262.800 232.209,261.675 232.356,260.300 232.339 C 258.925 232.322,256.900 232.424,255.800 232.567 C 254.700 232.710,252.990 232.855,252.000 232.889 C 250.928 232.926,249.986 233.204,249.670 233.576 C 249.379 233.919,249.266 233.957,249.419 233.660 C 249.635 233.239,249.530 233.209,248.944 233.523 C 248.530 233.744,247.722 233.836,247.147 233.726 C 246.573 233.616,245.551 233.812,244.877 234.160 C 244.202 234.509,243.369 234.686,243.025 234.554 C 242.621 234.399,242.400 234.537,242.400 234.945 C 242.400 235.353,242.179 235.490,241.773 235.334 C 241.428 235.202,240.753 235.281,240.273 235.511 C 239.793 235.740,239.074 236.033,238.675 236.161 C 238.276 236.289,238.045 236.550,238.163 236.739 C 238.280 236.929,237.952 237.003,237.435 236.905 C 236.917 236.806,236.372 236.922,236.223 237.162 C 236.075 237.403,235.513 237.600,234.976 237.600 C 234.439 237.600,234.000 237.780,234.000 238.000 C 234.000 238.220,233.721 238.400,233.379 238.400 C 232.680 238.400,229.472 240.038,229.267 240.500 C 229.193 240.665,228.878 240.800,228.567 240.800 C 228.255 240.800,228.000 240.980,228.000 241.200 C 228.000 241.420,227.667 241.600,227.260 241.600 C 226.853 241.600,225.775 242.140,224.863 242.800 C 223.952 243.460,223.027 244.000,222.807 244.000 C 222.587 244.000,222.182 244.360,221.907 244.800 C 221.632 245.240,221.181 245.600,220.904 245.600 C 220.627 245.600,220.400 245.780,220.400 246.000 C 220.400 246.220,220.223 246.400,220.007 246.400 C 219.659 246.400,218.710 247.150,216.445 249.214 C 216.075 249.552,215.072 250.362,214.217 251.014 C 212.145 252.594,210.201 254.529,210.311 254.900 C 210.360 255.065,210.209 255.200,209.976 255.200 C 209.743 255.200,209.662 255.376,209.795 255.592 C 209.943 255.831,210.302 255.845,210.719 255.625 C 212.051 254.925,214.606 253.805,215.000 253.749 C 215.220 253.718,215.535 253.649,215.700 253.596 C 215.865 253.543,216.135 253.462,216.300 253.415 C 216.465 253.369,216.901 253.198,217.269 253.035 C 217.637 252.872,218.177 252.702,218.469 252.658 C 218.761 252.614,219.180 252.469,219.400 252.336 C 219.620 252.203,220.387 251.968,221.103 251.814 C 221.820 251.661,222.315 251.386,222.203 251.205 C 222.091 251.023,222.382 250.975,222.850 251.097 C 223.379 251.235,223.829 251.092,224.038 250.719 C 224.277 250.292,224.840 250.164,225.982 250.278 C 227.307 250.411,227.548 250.330,227.352 249.819 C 227.067 249.076,224.546 248.963,224.306 249.682 C 224.208 249.977,223.506 250.127,222.505 250.068 C 221.603 250.015,220.750 250.158,220.609 250.386 C 220.468 250.614,219.700 250.800,218.902 250.800 L 217.450 250.800 218.531 249.672 C 219.125 249.052,219.474 248.393,219.306 248.208 C 219.138 248.023,219.235 248.007,219.521 248.173 C 219.838 248.355,220.328 248.145,220.768 247.637 C 221.167 247.177,221.671 246.800,221.888 246.800 C 222.104 246.800,222.846 246.260,223.537 245.600 C 224.228 244.940,225.064 244.400,225.396 244.400 C 225.728 244.400,226.000 244.241,226.000 244.047 C 226.000 243.852,226.315 243.593,226.700 243.471 C 227.636 243.175,229.766 241.876,229.933 241.500 C 230.007 241.335,230.412 241.200,230.833 241.200 C 231.255 241.200,231.600 241.020,231.600 240.800 C 231.600 240.580,231.960 240.400,232.400 240.400 C 232.840 240.400,233.200 240.220,233.200 240.000 C 233.200 239.780,233.560 239.600,234.000 239.600 C 234.440 239.600,234.800 239.347,234.800 239.037 C 234.800 238.672,235.080 238.548,235.600 238.684 C 236.047 238.801,236.400 238.696,236.400 238.447 C 236.400 238.201,236.856 238.000,237.413 238.000 C 237.969 238.000,238.528 237.731,238.654 237.403 C 238.806 237.009,239.194 236.884,239.798 237.035 C 240.301 237.162,240.833 237.070,240.980 236.832 C 241.127 236.595,241.692 236.400,242.236 236.400 C 242.780 236.400,243.318 236.157,243.433 235.859 C 243.562 235.521,244.023 235.392,244.663 235.514 C 245.279 235.632,245.819 235.493,246.023 235.163 C 246.234 234.821,246.900 234.663,247.800 234.741 C 248.592 234.809,249.512 234.639,249.845 234.362 C 250.178 234.086,251.564 233.808,252.925 233.743 C 258.744 233.468,262.225 233.117,262.580 232.771 C 262.789 232.567,263.239 232.399,263.580 232.397 C 263.921 232.395,264.425 231.909,264.700 231.317 C 265.377 229.860,265.353 227.600,264.661 227.600 C 264.272 227.600,264.156 228.093,264.245 229.378 M126.909 231.200 C 126.909 232.190,126.987 232.595,127.082 232.100 C 127.178 231.605,127.178 230.795,127.082 230.300 C 126.987 229.805,126.909 230.210,126.909 231.200 M126.800 237.151 C 126.800 237.398,126.980 237.600,127.200 237.600 C 127.420 237.600,127.597 237.915,127.594 238.300 C 127.589 238.898,127.531 238.913,127.200 238.400 C 126.929 237.981,126.822 238.585,126.846 240.400 C 126.871 242.303,126.966 242.732,127.200 242.000 L 127.520 241.000 127.560 242.067 C 127.582 242.653,127.416 243.225,127.190 243.337 C 126.965 243.449,127.010 243.494,127.290 243.438 C 128.097 243.277,128.207 237.870,127.416 237.213 C 126.998 236.866,126.800 236.846,126.800 237.151 M120.229 242.629 C 119.342 243.515,119.287 255.905,120.168 256.243 C 120.514 256.376,120.669 256.831,120.565 257.405 C 120.365 258.505,120.794 258.901,121.619 258.380 C 122.087 258.083,122.045 258.005,121.400 257.975 C 120.960 257.954,120.806 257.852,121.058 257.749 C 121.556 257.545,121.311 256.000,120.780 256.000 C 120.493 256.000,120.527 254.448,120.908 250.200 C 120.967 249.540,120.873 248.797,120.699 248.549 C 120.525 248.300,120.566 247.615,120.790 247.026 C 121.014 246.436,121.047 246.047,120.864 246.161 C 120.680 246.274,120.502 245.644,120.467 244.761 C 120.431 243.852,120.566 243.256,120.778 243.386 C 120.983 243.513,121.124 243.253,121.091 242.809 C 121.018 241.837,121.019 241.838,120.229 242.629 M126.806 245.033 C 126.809 245.675,126.990 246.470,127.208 246.800 C 127.486 247.222,127.532 246.925,127.364 245.800 C 127.069 243.838,126.798 243.464,126.806 245.033 M246.235 246.300 C 246.071 246.465,243.746 246.690,241.068 246.800 C 238.019 246.925,236.275 247.149,236.400 247.400 C 236.510 247.620,236.729 247.757,236.886 247.705 C 237.043 247.652,237.054 247.922,236.911 248.305 C 236.675 248.933,236.721 248.942,237.383 248.403 C 237.940 247.949,239.276 247.803,242.958 247.792 C 246.965 247.779,247.778 247.677,247.670 247.200 C 247.564 246.724,247.669 246.732,248.270 247.248 C 248.850 247.745,249.945 247.862,253.600 247.817 C 256.130 247.785,258.425 247.926,258.700 248.129 C 258.975 248.332,259.200 248.364,259.200 248.200 C 259.200 248.036,259.448 248.108,259.751 248.359 C 260.068 248.622,261.126 248.745,262.251 248.648 C 263.323 248.556,264.436 248.462,264.724 248.440 C 266.351 248.315,264.374 247.600,262.400 247.600 C 261.106 247.600,259.932 247.414,259.792 247.187 C 259.640 246.941,257.974 246.803,255.668 246.845 C 253.512 246.884,251.302 246.713,250.674 246.458 C 249.404 245.941,246.688 245.845,246.235 246.300 M231.806 247.990 C 231.667 248.215,231.878 248.418,232.276 248.440 C 232.674 248.463,233.772 248.529,234.716 248.588 C 235.810 248.657,236.380 248.539,236.288 248.263 C 236.099 247.698,232.136 247.456,231.806 247.990 M227.867 248.667 C 227.301 249.232,227.660 249.397,229.300 249.327 C 230.235 249.287,231.360 249.239,231.800 249.221 C 232.465 249.193,232.499 249.123,232.000 248.800 C 231.319 248.360,228.272 248.262,227.867 248.667 M150.000 254.353 C 150.000 254.603,148.109 254.725,144.966 254.677 C 141.371 254.622,139.814 254.742,139.521 255.095 C 139.295 255.368,138.404 255.563,137.541 255.529 C 136.678 255.495,135.808 255.633,135.606 255.834 C 135.076 256.364,138.789 256.507,139.424 255.980 C 140.193 255.342,160.989 255.327,161.757 255.964 C 162.080 256.232,163.246 256.401,164.410 256.348 C 166.272 256.263,166.410 256.196,165.744 255.707 C 165.265 255.355,164.439 255.238,163.423 255.379 C 162.452 255.514,161.738 255.423,161.565 255.144 C 161.383 254.849,159.480 254.667,156.133 254.625 C 153.300 254.589,150.761 254.423,150.491 254.256 C 150.221 254.089,150.000 254.133,150.000 254.353 M246.170 254.337 C 246.430 254.770,245.921 254.859,243.547 254.794 C 238.515 254.658,235.944 254.785,236.175 255.160 C 236.298 255.358,235.507 255.508,234.419 255.494 C 233.331 255.480,232.193 255.674,231.891 255.925 C 231.588 256.176,230.949 256.306,230.470 256.214 C 229.992 256.121,229.600 256.221,229.600 256.436 C 229.600 257.103,230.779 257.315,231.440 256.766 C 231.807 256.462,232.818 256.289,233.856 256.353 C 234.854 256.415,235.907 256.243,236.242 255.966 C 236.690 255.593,239.603 255.479,247.820 255.510 C 256.061 255.541,258.800 255.433,258.800 255.076 C 258.800 254.725,257.252 254.624,252.933 254.693 C 248.759 254.759,246.889 254.643,246.455 254.293 C 245.963 253.894,245.908 253.903,246.170 254.337 M131.918 256.567 C 131.322 256.879,130.494 257.045,130.077 256.936 C 129.660 256.827,129.067 256.986,128.760 257.290 C 128.452 257.594,127.660 257.809,127.000 257.768 C 126.340 257.726,125.401 257.942,124.914 258.246 C 124.427 258.551,123.471 258.800,122.790 258.800 C 122.067 258.800,121.656 258.966,121.800 259.200 C 122.164 259.788,125.030 259.687,125.543 259.068 C 125.805 258.753,126.478 258.609,127.192 258.714 C 127.919 258.820,128.400 258.713,128.400 258.445 C 128.400 258.200,129.008 258.000,129.751 258.000 C 130.494 258.000,131.312 257.747,131.569 257.438 C 131.851 257.098,132.490 256.947,133.183 257.056 C 133.814 257.156,134.446 257.049,134.589 256.818 C 134.731 256.588,134.671 256.400,134.456 256.400 C 134.241 256.400,133.826 256.310,133.533 256.200 C 133.240 256.091,132.513 256.256,131.918 256.567 M166.990 256.343 C 166.898 256.436,166.917 256.666,167.034 256.856 C 167.317 257.313,170.400 257.301,170.400 256.842 C 170.400 256.482,167.304 256.029,166.990 256.343 M228.500 256.265 C 227.804 256.546,227.873 257.200,228.600 257.200 C 228.930 257.200,229.200 256.930,229.200 256.600 C 229.200 256.270,229.155 256.014,229.100 256.032 C 229.045 256.049,228.775 256.154,228.500 256.265 M172.300 257.124 C 170.294 257.290,170.375 258.000,172.400 258.000 C 173.280 258.000,174.000 258.179,174.000 258.397 C 174.000 258.864,177.142 258.817,177.434 258.345 C 177.714 257.892,175.820 257.476,174.861 257.781 C 174.369 257.937,174.014 257.836,173.933 257.517 C 173.846 257.180,173.276 257.043,172.300 257.124 M225.433 257.500 C 225.268 257.665,224.653 257.828,224.067 257.862 C 223.480 257.896,222.460 258.036,221.800 258.173 C 221.140 258.311,220.330 258.443,220.000 258.466 C 219.670 258.490,219.220 258.640,219.000 258.799 C 218.780 258.959,218.098 259.210,217.484 259.357 C 216.870 259.503,216.480 259.805,216.617 260.028 C 216.776 260.285,216.476 260.334,215.791 260.162 C 215.065 259.980,214.602 260.072,214.370 260.446 C 214.181 260.751,213.796 261.020,213.513 261.045 C 212.571 261.126,210.400 262.074,210.400 262.404 C 210.400 262.583,210.085 262.681,209.700 262.621 C 209.315 262.562,208.910 262.631,208.800 262.776 C 208.371 263.339,206.050 264.800,205.584 264.800 C 205.313 264.800,204.685 265.239,204.188 265.775 C 203.691 266.312,203.175 266.642,203.042 266.509 C 202.909 266.376,202.800 266.477,202.800 266.733 C 202.800 267.485,196.629 267.357,195.994 266.593 C 195.717 266.259,194.840 265.683,194.045 265.313 C 192.399 264.548,190.265 263.146,190.067 262.700 C 189.993 262.535,189.599 262.400,189.190 262.400 C 188.782 262.400,188.328 262.208,188.183 261.973 C 188.038 261.738,187.667 261.642,187.360 261.760 C 187.052 261.878,186.800 261.795,186.800 261.575 C 186.800 261.355,186.485 261.069,186.100 260.940 C 185.715 260.811,184.255 260.263,182.855 259.722 C 179.856 258.563,177.200 258.318,177.200 259.200 C 177.200 259.420,177.729 259.600,178.376 259.600 C 179.023 259.600,179.664 259.780,179.800 260.000 C 179.936 260.220,180.487 260.400,181.024 260.400 C 181.561 260.400,182.000 260.580,182.000 260.800 C 182.000 261.020,182.540 261.200,183.200 261.200 C 183.860 261.200,184.400 261.380,184.400 261.600 C 184.400 261.820,184.760 262.000,185.200 262.000 C 185.640 262.000,186.000 262.180,186.000 262.400 C 186.000 262.620,186.360 262.800,186.800 262.800 C 187.240 262.800,187.600 262.980,187.600 263.200 C 187.600 263.420,187.960 263.600,188.400 263.600 C 188.840 263.600,189.200 263.780,189.200 264.000 C 189.200 264.220,189.436 264.400,189.725 264.400 C 190.013 264.400,190.636 264.760,191.108 265.200 C 191.580 265.640,192.204 266.000,192.495 266.000 C 192.786 266.000,193.283 266.360,193.600 266.800 C 193.917 267.240,194.497 267.600,194.888 267.600 C 195.280 267.600,195.600 267.780,195.600 268.000 C 195.600 268.220,196.039 268.400,196.576 268.400 C 197.113 268.400,197.664 268.580,197.800 268.800 C 197.936 269.020,198.566 269.200,199.200 269.200 C 199.834 269.200,200.464 269.020,200.600 268.800 C 200.736 268.580,201.332 268.394,201.924 268.387 C 203.089 268.374,204.400 267.575,204.400 266.880 C 204.400 266.642,204.608 266.319,204.862 266.162 C 205.165 265.975,205.214 266.053,205.006 266.390 C 204.793 266.735,204.872 266.837,205.244 266.702 C 205.550 266.591,205.761 266.316,205.714 266.091 C 205.666 265.866,205.937 265.763,206.316 265.862 C 206.694 265.961,207.401 265.673,207.885 265.221 C 208.370 264.769,209.044 264.400,209.383 264.400 C 209.722 264.400,210.001 264.265,210.003 264.100 C 210.007 263.730,211.953 262.800,212.723 262.800 C 213.038 262.800,213.192 262.556,213.073 262.245 C 212.920 261.848,213.093 261.751,213.681 261.905 C 214.186 262.037,214.635 261.880,214.850 261.497 C 215.059 261.122,215.515 260.957,215.994 261.083 C 216.483 261.210,216.879 261.059,217.021 260.690 C 217.160 260.327,217.559 260.169,218.026 260.291 C 218.522 260.421,218.800 260.290,218.800 259.927 C 218.800 259.519,219.178 259.405,220.153 259.519 C 220.897 259.605,221.627 259.479,221.776 259.238 C 221.925 258.997,222.645 258.800,223.375 258.800 C 224.105 258.800,224.905 258.555,225.154 258.256 C 225.410 257.946,226.035 257.794,226.603 257.903 C 227.184 258.014,227.600 257.907,227.600 257.647 C 227.600 257.148,225.901 257.033,225.433 257.500 " stroke="none" fill="#fcfcfc" fill-rule="evenodd"></path><path id="path2" d="M119.600 160.000 C 119.600 160.220,119.870 160.400,120.200 160.400 C 120.530 160.400,120.800 160.220,120.800 160.000 C 120.800 159.780,120.530 159.600,120.200 159.600 C 119.870 159.600,119.600 159.780,119.600 160.000 M272.712 187.620 C 272.613 188.290,272.672 189.685,272.843 190.720 C 273.261 193.262,273.281 200.400,272.870 200.400 C 272.688 200.400,272.553 202.191,272.570 204.380 C 272.624 211.502,273.171 208.003,273.287 199.793 C 273.436 189.247,273.202 184.283,272.712 187.620 M126.958 203.573 C 126.981 204.205,127.135 204.638,127.300 204.537 C 127.710 204.285,127.680 202.896,127.258 202.636 C 127.070 202.520,126.935 202.941,126.958 203.573 M126.828 206.300 C 126.853 207.275,126.895 207.309,127.200 206.600 C 127.669 205.507,127.669 205.200,127.200 205.200 C 126.980 205.200,126.813 205.695,126.828 206.300 M127.067 207.867 C 126.655 208.278,126.751 210.800,127.179 210.800 C 127.387 210.800,127.529 210.080,127.494 209.200 C 127.459 208.320,127.408 207.600,127.382 207.600 C 127.355 207.600,127.213 207.720,127.067 207.867 M126.800 216.400 C 126.800 217.733,126.978 218.800,127.200 218.800 C 127.422 218.800,127.600 217.733,127.600 216.400 C 127.600 215.067,127.422 214.000,127.200 214.000 C 126.978 214.000,126.800 215.067,126.800 216.400 M126.785 220.176 C 126.622 222.644,126.827 229.226,127.070 229.300 C 127.525 229.438,127.618 220.458,127.165 220.178 C 126.964 220.054,126.793 220.053,126.785 220.176 M120.534 224.800 C 120.534 226.450,120.605 227.125,120.691 226.300 C 120.778 225.475,120.778 224.125,120.691 223.300 C 120.605 222.475,120.534 223.150,120.534 224.800 M126.672 233.062 C 126.350 233.384,126.784 236.470,127.218 236.947 C 127.392 237.138,127.487 236.371,127.429 235.243 C 127.322 233.143,127.133 232.600,126.672 233.062 M272.673 245.461 C 272.256 245.877,272.359 247.725,272.837 248.400 C 273.214 248.933,273.242 248.933,273.088 248.400 C 272.993 248.070,273.053 247.425,273.222 246.967 C 273.544 246.093,273.142 244.991,272.673 245.461 M126.617 247.572 C 126.344 248.014,126.975 248.492,127.344 248.122 C 127.725 247.742,127.654 247.200,127.224 247.200 C 127.017 247.200,126.744 247.368,126.617 247.572 " stroke="none" fill="#f4fcfc" fill-rule="evenodd"></path><path id="path3" d="M142.981 134.224 C 144.324 134.921,144.270 134.918,144.505 134.300 C 144.631 133.966,144.226 133.775,143.283 133.724 L 141.871 133.648 142.981 134.224 M161.335 137.868 C 161.960 138.195,162.575 138.359,162.702 138.231 C 162.829 138.104,162.713 138.000,162.443 138.000 C 162.173 138.000,162.036 137.865,162.138 137.700 C 162.240 137.535,161.846 137.371,161.262 137.336 L 160.200 137.272 161.335 137.868 M134.920 142.000 C 134.920 143.210,134.995 143.705,135.087 143.100 C 135.178 142.495,135.178 141.505,135.087 140.900 C 134.995 140.295,134.920 140.790,134.920 142.000 M228.832 141.162 C 228.801 142.099,228.821 142.105,229.600 141.400 C 230.503 140.583,230.704 140.050,229.839 140.768 C 229.408 141.125,229.230 141.113,229.070 140.717 C 228.956 140.433,228.849 140.633,228.832 141.162 M175.853 144.594 C 175.988 144.946,176.191 145.142,176.304 145.029 C 176.417 144.916,177.025 145.191,177.655 145.639 C 178.285 146.088,178.800 146.295,178.800 146.101 C 178.800 145.906,178.082 145.344,177.203 144.850 C 175.927 144.133,175.656 144.081,175.853 144.594 M214.101 149.381 C 214.266 149.576,214.086 150.107,213.701 150.561 C 213.252 151.089,213.216 151.228,213.600 150.947 C 213.930 150.705,214.445 150.432,214.744 150.339 C 215.156 150.211,215.108 150.033,214.544 149.599 C 214.135 149.284,213.935 149.186,214.101 149.381 M185.200 151.216 C 186.190 152.086,187.180 152.793,187.400 152.786 C 187.620 152.780,187.266 152.377,186.614 151.891 C 185.961 151.405,185.156 150.691,184.825 150.304 C 184.493 149.917,184.037 149.608,183.811 149.617 C 183.585 149.626,184.210 150.346,185.200 151.216 M132.579 152.766 C 132.703 152.967,132.579 153.223,132.302 153.334 C 132.026 153.446,132.227 153.551,132.749 153.568 C 133.548 153.595,133.619 153.505,133.200 153.000 C 132.656 152.345,132.216 152.179,132.579 152.766 M265.742 152.893 C 265.620 153.091,265.628 153.361,265.760 153.493 C 265.892 153.625,266.000 153.501,266.000 153.218 C 266.000 152.801,266.117 152.799,266.610 153.208 C 266.945 153.486,267.335 153.598,267.476 153.457 C 267.618 153.316,267.513 153.200,267.243 153.200 C 266.973 153.200,266.845 153.050,266.959 152.867 C 267.072 152.683,266.895 152.533,266.565 152.533 C 266.235 152.533,265.865 152.695,265.742 152.893 M272.611 154.322 C 272.357 154.576,272.763 155.200,273.181 155.200 C 273.364 155.200,273.607 154.960,273.719 154.667 C 273.909 154.171,273.034 153.899,272.611 154.322 M274.933 155.364 C 274.933 155.705,275.460 155.989,276.267 156.084 C 277.000 156.169,277.600 156.096,277.600 155.920 C 277.600 155.744,277.150 155.600,276.600 155.600 C 276.050 155.600,275.600 155.420,275.600 155.200 C 275.600 154.980,275.450 154.800,275.267 154.800 C 275.083 154.800,274.933 155.054,274.933 155.364 M124.583 155.627 C 124.438 155.862,124.058 155.954,123.739 155.832 C 123.415 155.707,123.266 155.784,123.403 156.005 C 123.762 156.585,124.630 156.486,125.200 155.800 C 125.514 155.422,125.541 155.200,125.273 155.200 C 125.039 155.200,124.728 155.392,124.583 155.627 M133.633 158.546 C 134.440 159.251,135.752 159.673,135.251 159.065 C 134.949 158.699,134.424 158.400,134.084 158.400 C 133.745 158.400,133.542 158.466,133.633 158.546 M278.406 160.100 C 278.411 160.828,278.486 160.885,278.800 160.400 C 279.301 159.624,279.301 159.200,278.800 159.200 C 278.580 159.200,278.403 159.605,278.406 160.100 M194.856 160.766 C 195.375 161.187,195.866 161.465,195.948 161.385 C 196.189 161.145,194.897 160.000,194.384 160.000 C 194.124 160.000,194.336 160.345,194.856 160.766 M126.744 161.300 C 126.498 163.484,126.562 166.388,126.846 165.939 C 127.111 165.521,127.189 165.516,127.194 165.913 C 127.197 166.194,126.930 166.529,126.600 166.655 C 125.754 166.980,125.835 168.399,126.700 168.406 C 127.127 168.410,127.230 168.527,126.966 168.706 C 126.431 169.068,126.423 173.233,126.958 172.902 C 127.184 172.763,127.209 172.976,127.021 173.434 C 126.598 174.461,126.324 180.345,126.640 181.600 C 126.877 182.540,126.911 182.552,127.217 181.800 C 127.713 180.577,127.632 163.921,127.127 163.312 C 126.843 162.970,126.838 162.800,127.114 162.800 C 127.340 162.800,127.435 162.455,127.324 162.033 C 127.176 161.466,127.368 161.219,128.062 161.087 C 128.913 160.925,128.898 160.904,127.900 160.854 C 127.283 160.824,126.775 161.020,126.744 161.300 M120.632 163.148 C 120.509 163.347,120.677 163.732,121.004 164.004 C 121.489 164.406,121.600 164.381,121.600 163.873 C 121.600 163.126,120.948 162.638,120.632 163.148 M201.089 163.605 C 200.326 164.496,200.184 164.981,200.798 164.601 C 201.190 164.359,202.146 162.800,201.903 162.800 C 201.834 162.800,201.468 163.162,201.089 163.605 M278.200 166.238 C 278.200 166.767,278.335 167.200,278.500 167.200 C 278.665 167.200,278.800 166.851,278.800 166.424 C 278.800 165.997,278.665 165.564,278.500 165.462 C 278.335 165.360,278.200 165.709,278.200 166.238 M121.200 174.624 C 121.200 181.086,121.093 182.787,120.700 182.565 C 120.300 182.339,120.300 182.390,120.700 182.821 C 121.338 183.509,121.436 211.600,120.800 211.600 C 120.580 211.600,120.400 211.791,120.400 212.024 C 120.400 212.257,120.568 212.343,120.774 212.216 C 120.980 212.089,121.221 212.573,121.310 213.292 C 121.399 214.012,121.501 203.755,121.536 190.500 C 121.571 177.245,121.510 166.400,121.400 166.400 C 121.290 166.400,121.200 170.101,121.200 174.624 M272.854 169.876 C 272.825 171.238,272.935 172.436,273.100 172.538 C 273.265 172.640,273.347 171.886,273.283 170.862 C 273.084 167.688,272.911 167.291,272.854 169.876 M278.544 179.200 C 278.544 181.290,278.612 182.145,278.694 181.100 C 278.776 180.055,278.776 178.345,278.694 177.300 C 278.612 176.255,278.544 177.110,278.544 179.200 M127.083 178.495 C 126.987 178.993,126.905 178.680,126.901 177.800 C 126.896 176.920,126.975 176.513,127.075 176.895 C 127.175 177.278,127.179 177.998,127.083 178.495 M272.400 180.867 C 272.400 182.504,272.546 183.067,272.970 183.067 C 273.284 183.067,273.515 182.737,273.485 182.333 C 273.455 181.930,273.326 181.600,273.200 181.600 C 273.074 181.600,272.926 181.024,272.873 180.321 C 272.709 178.175,272.400 178.532,272.400 180.867 M126.645 183.127 C 126.301 183.683,126.417 197.563,126.767 197.779 C 126.948 197.891,127.089 194.567,127.081 190.391 C 127.073 186.216,127.017 182.800,126.957 182.800 C 126.896 182.800,126.756 182.947,126.645 183.127 M278.493 186.400 C 278.493 187.170,278.575 187.485,278.676 187.100 C 278.776 186.715,278.776 186.085,278.676 185.700 C 278.575 185.315,278.493 185.630,278.493 186.400 M278.537 191.000 C 278.539 192.760,278.609 193.430,278.693 192.489 C 278.778 191.549,278.777 190.109,278.691 189.289 C 278.605 188.470,278.536 189.240,278.537 191.000 M273.293 190.400 C 273.293 191.170,273.375 191.485,273.476 191.100 C 273.576 190.715,273.576 190.085,273.476 189.700 C 273.375 189.315,273.293 189.630,273.293 190.400 M263.709 192.400 C 263.709 193.390,263.787 193.795,263.882 193.300 C 263.978 192.805,263.978 191.995,263.882 191.500 C 263.787 191.005,263.709 191.410,263.709 192.400 M264.124 196.600 C 264.126 197.920,264.201 198.412,264.290 197.693 C 264.379 196.974,264.377 195.894,264.286 195.293 C 264.195 194.692,264.122 195.280,264.124 196.600 M278.493 195.600 C 278.493 196.370,278.575 196.685,278.676 196.300 C 278.776 195.915,278.776 195.285,278.676 194.900 C 278.575 194.515,278.493 194.830,278.493 195.600 M126.719 199.600 C 126.202 202.604,126.323 205.200,126.980 205.200 C 127.321 205.200,127.600 205.009,127.600 204.776 C 127.600 204.543,127.420 204.464,127.200 204.600 C 126.966 204.745,126.800 204.330,126.800 203.600 C 126.800 202.870,126.966 202.455,127.200 202.600 C 127.645 202.875,127.662 201.287,127.232 199.400 L 126.959 198.200 126.719 199.600 M120.493 200.800 C 120.493 201.570,120.575 201.885,120.676 201.500 C 120.776 201.115,120.776 200.485,120.676 200.100 C 120.575 199.715,120.493 200.030,120.493 200.800 M278.542 207.800 C 278.541 209.780,278.608 210.640,278.692 209.712 C 278.776 208.784,278.777 207.164,278.695 206.112 C 278.612 205.060,278.543 205.820,278.542 207.800 M120.520 208.000 C 120.520 209.210,120.595 209.705,120.687 209.100 C 120.778 208.495,120.778 207.505,120.687 206.900 C 120.595 206.295,120.520 206.790,120.520 208.000 M272.660 212.061 C 272.184 218.772,272.299 221.214,273.080 220.914 C 273.505 220.751,273.580 220.593,273.280 220.493 C 273.016 220.405,272.800 220.068,272.800 219.743 C 272.800 219.418,272.935 219.236,273.100 219.338 C 273.486 219.576,273.468 215.552,273.080 214.928 C 272.919 214.668,272.970 214.342,273.193 214.204 C 273.683 213.902,273.746 208.400,273.260 208.400 C 273.073 208.400,272.803 210.048,272.660 212.061 M126.528 212.400 C 126.528 213.830,126.601 214.415,126.689 213.700 C 126.778 212.985,126.778 211.815,126.689 211.100 C 126.601 210.385,126.528 210.970,126.528 212.400 M127.309 212.400 C 127.309 213.390,127.387 213.795,127.482 213.300 C 127.578 212.805,127.578 211.995,127.482 211.500 C 127.387 211.005,127.309 211.410,127.309 212.400 M278.263 214.700 C 278.162 214.865,278.216 216.440,278.384 218.200 L 278.688 221.400 278.744 217.900 C 278.797 214.607,278.703 213.983,278.263 214.700 M121.057 216.640 C 120.918 217.651,120.978 218.776,121.190 219.140 C 121.468 219.615,121.579 219.099,121.588 217.300 C 121.602 214.340,121.405 214.095,121.057 216.640 M121.147 226.700 C 121.117 230.165,121.038 234.301,120.970 235.891 C 120.903 237.481,121.017 238.887,121.224 239.015 C 121.455 239.157,121.600 235.608,121.600 229.824 C 121.600 224.641,121.510 220.400,121.400 220.400 C 121.290 220.400,121.176 223.235,121.147 226.700 M272.400 225.200 C 272.400 226.730,272.550 227.555,272.800 227.400 C 273.020 227.264,273.200 226.274,273.200 225.200 C 273.200 224.126,273.020 223.136,272.800 223.000 C 272.550 222.845,272.400 223.670,272.400 225.200 M135.314 225.400 C 135.317 226.500,135.395 226.903,135.487 226.295 C 135.579 225.686,135.577 224.786,135.482 224.295 C 135.387 223.803,135.311 224.300,135.314 225.400 M278.348 225.100 C 278.103 226.528,278.280 238.673,278.543 238.511 C 278.732 238.395,278.822 235.262,278.743 231.551 C 278.616 225.562,278.525 224.072,278.348 225.100 M127.328 231.600 C 127.328 233.030,127.401 233.615,127.489 232.900 C 127.578 232.185,127.578 231.015,127.489 230.300 C 127.401 229.585,127.328 230.170,127.328 231.600 M126.509 231.200 C 126.509 232.190,126.587 232.595,126.682 232.100 C 126.778 231.605,126.778 230.795,126.682 230.300 C 126.587 229.805,126.509 230.210,126.509 231.200 M253.549 232.665 C 253.053 233.267,253.084 233.286,253.874 232.865 C 254.969 232.282,256.087 232.227,255.200 232.800 C 254.870 233.013,254.791 233.191,255.024 233.194 C 255.256 233.197,255.796 232.936,256.224 232.613 C 256.953 232.061,256.912 232.025,255.549 232.013 C 254.670 232.005,253.882 232.262,253.549 232.665 M249.210 232.846 C 248.401 233.168,248.328 233.310,248.810 233.613 C 249.212 233.867,249.540 233.799,249.840 233.399 C 250.081 233.076,250.425 232.945,250.604 233.106 C 250.782 233.268,250.799 233.175,250.641 232.900 C 250.482 232.625,250.318 232.411,250.276 232.425 C 250.234 232.439,249.754 232.629,249.210 232.846 M273.200 233.167 C 273.200 233.588,272.996 234.001,272.747 234.084 C 272.473 234.176,272.404 234.583,272.574 235.118 C 273.039 236.584,273.533 236.112,273.533 234.200 C 273.533 233.210,273.458 232.400,273.367 232.400 C 273.275 232.400,273.200 232.745,273.200 233.167 M144.000 233.621 C 143.154 233.874,143.123 233.932,143.800 233.995 C 144.240 234.036,145.187 234.130,145.905 234.204 C 146.695 234.285,147.112 234.182,146.964 233.942 C 146.829 233.724,146.489 233.634,146.208 233.741 C 145.927 233.849,145.541 233.799,145.349 233.629 C 145.157 233.460,144.550 233.456,144.000 233.621 M154.176 235.639 C 153.830 236.199,154.702 236.400,155.148 235.862 C 155.480 235.463,155.438 235.333,154.976 235.333 C 154.640 235.333,154.280 235.471,154.176 235.639 M126.459 236.600 C 126.441 237.040,126.690 237.749,127.013 238.176 C 127.336 238.604,127.600 238.775,127.600 238.556 C 127.600 238.338,127.437 237.989,127.239 237.780 C 127.040 237.571,126.791 237.040,126.685 236.600 L 126.493 235.800 126.459 236.600 M272.400 237.400 C 272.400 238.022,272.627 238.400,273.000 238.400 C 273.330 238.400,273.600 238.220,273.600 238.000 C 273.600 237.780,273.420 237.600,273.200 237.600 C 272.980 237.600,272.800 237.409,272.800 237.176 C 272.800 236.943,273.008 236.881,273.262 237.038 C 273.548 237.215,273.615 237.148,273.438 236.862 C 272.949 236.070,272.400 236.355,272.400 237.400 M162.611 238.534 C 163.527 239.153,164.800 239.655,164.800 239.398 C 164.800 239.177,162.552 238.000,162.131 238.000 C 161.961 238.000,162.177 238.240,162.611 238.534 M272.800 241.600 C 272.800 242.260,272.980 242.800,273.200 242.800 C 273.420 242.800,273.600 242.260,273.600 241.600 C 273.600 240.940,273.420 240.400,273.200 240.400 C 272.980 240.400,272.800 240.940,272.800 241.600 M127.200 241.920 C 127.200 242.316,126.975 242.867,126.700 243.144 C 126.299 243.548,126.339 243.595,126.900 243.381 C 127.509 243.149,127.956 241.200,127.400 241.200 C 127.290 241.200,127.200 241.524,127.200 241.920 M278.200 242.367 C 278.200 244.051,278.621 244.225,278.732 242.586 C 278.783 241.824,278.684 241.200,278.513 241.200 C 278.341 241.200,278.200 241.725,278.200 242.367 M224.800 242.436 C 224.136 242.979,224.069 243.115,224.600 242.840 C 225.905 242.166,226.628 241.612,226.200 241.615 C 225.980 241.617,225.350 241.986,224.800 242.436 M120.406 244.167 C 120.409 244.625,120.574 245.255,120.771 245.567 C 120.984 245.903,120.978 246.532,120.756 247.115 C 120.495 247.802,120.536 248.286,120.891 248.725 C 121.309 249.241,121.303 249.295,120.860 249.029 C 120.419 248.763,120.407 248.865,120.794 249.589 C 121.082 250.126,121.147 250.893,120.961 251.537 C 120.416 253.421,120.442 254.063,121.045 253.563 C 121.794 252.941,121.667 243.333,120.910 243.333 C 120.629 243.333,120.403 243.708,120.406 244.167 M220.869 245.031 C 219.880 245.813,219.408 246.400,219.769 246.400 C 220.116 246.400,220.400 246.220,220.400 246.000 C 220.400 245.780,220.651 245.600,220.957 245.600 C 221.264 245.600,221.620 245.326,221.748 244.990 C 221.877 244.655,222.391 244.217,222.891 244.016 C 223.391 243.815,223.530 243.653,223.200 243.656 C 222.870 243.659,221.821 244.278,220.869 245.031 M126.334 245.577 C 126.230 246.668,126.338 247.200,126.664 247.200 C 127.000 247.200,127.078 246.736,126.918 245.700 C 126.607 243.686,126.516 243.667,126.334 245.577 M278.501 248.200 C 278.505 249.080,278.587 249.393,278.683 248.895 C 278.779 248.398,278.775 247.678,278.675 247.295 C 278.575 246.913,278.496 247.320,278.501 248.200 M145.596 247.796 C 145.868 248.123,146.253 248.291,146.452 248.168 C 146.962 247.852,146.474 247.200,145.727 247.200 C 145.219 247.200,145.194 247.311,145.596 247.796 M147.200 247.571 C 147.200 248.047,148.299 248.264,149.700 248.065 C 151.464 247.815,150.967 247.200,149.000 247.200 C 148.010 247.200,147.200 247.367,147.200 247.571 M151.200 247.644 C 151.200 247.837,151.920 247.966,152.800 247.932 C 153.680 247.897,154.400 247.730,154.400 247.559 C 154.400 247.389,153.680 247.260,152.800 247.272 C 151.920 247.284,151.200 247.452,151.200 247.644 M154.800 247.600 C 154.800 247.820,155.295 247.987,155.900 247.972 C 156.875 247.947,156.909 247.905,156.200 247.600 C 155.107 247.131,154.800 247.131,154.800 247.600 M139.500 248.229 C 138.895 248.557,138.400 248.893,138.400 248.975 C 138.400 249.293,140.227 248.628,140.729 248.128 C 141.420 247.437,140.877 247.482,139.500 248.229 M135.396 248.807 C 135.258 249.030,134.979 249.110,134.776 248.985 C 134.572 248.859,134.090 248.942,133.703 249.168 C 133.113 249.514,133.181 249.567,134.125 249.501 C 135.031 249.437,136.677 248.400,135.873 248.400 C 135.749 248.400,135.534 248.583,135.396 248.807 M168.489 248.737 C 168.117 248.973,168.250 249.185,168.974 249.516 C 169.599 249.800,170.060 249.826,170.209 249.585 C 170.340 249.373,170.066 249.200,169.600 249.200 C 169.134 249.200,168.864 249.020,169.000 248.800 C 169.297 248.320,169.171 248.304,168.489 248.737 M272.671 248.802 C 272.993 249.144,273.024 249.611,272.768 250.285 C 272.499 250.993,272.524 251.225,272.859 251.114 C 273.868 250.777,274.016 249.236,273.085 248.757 C 272.380 248.395,272.296 248.404,272.671 248.802 M267.600 249.600 C 266.933 249.814,266.833 249.934,267.300 249.960 C 267.685 249.982,268.000 250.174,268.000 250.387 C 268.000 250.601,268.240 250.683,268.533 250.570 C 268.827 250.458,269.067 250.103,269.067 249.783 C 269.067 249.142,269.040 249.139,267.600 249.600 M223.984 250.830 C 223.576 251.592,223.609 251.623,224.381 251.210 C 224.844 250.963,225.117 250.589,224.988 250.380 C 224.646 249.828,224.480 249.903,223.984 250.830 M222.203 251.205 C 222.337 251.422,222.177 251.600,221.847 251.600 C 221.517 251.600,221.152 251.754,221.036 251.942 C 220.919 252.130,221.271 252.199,221.818 252.094 C 223.043 251.860,223.403 251.363,222.577 251.046 C 222.223 250.911,222.063 250.978,222.203 251.205 M149.519 254.300 C 149.227 254.651,149.236 254.800,149.551 254.800 C 149.798 254.800,150.000 254.639,150.000 254.443 C 150.000 254.243,150.743 254.274,151.677 254.511 C 152.899 254.821,153.395 254.815,153.504 254.488 C 153.608 254.175,153.963 254.158,154.682 254.431 C 155.747 254.836,156.236 254.705,155.869 254.112 C 155.618 253.706,153.959 253.731,153.280 254.151 C 153.016 254.314,152.800 254.288,152.800 254.094 C 152.800 253.554,149.994 253.731,149.519 254.300 M246.693 253.849 C 246.554 254.074,245.807 254.227,245.033 254.189 C 244.259 254.150,243.712 254.257,243.817 254.427 C 244.068 254.833,251.935 254.829,252.186 254.423 C 252.292 254.251,251.979 254.142,251.490 254.180 C 251.000 254.218,250.420 254.153,250.200 254.036 C 249.475 253.649,248.665 253.644,247.960 254.022 C 247.488 254.274,247.213 254.240,247.106 253.917 C 247.003 253.609,246.857 253.585,246.693 253.849 M139.417 254.640 C 138.933 255.124,138.646 255.170,138.236 254.830 C 137.826 254.489,137.641 254.516,137.478 254.940 C 137.150 255.795,139.036 255.644,139.845 254.750 C 140.671 253.837,140.312 253.745,139.417 254.640 M160.600 254.693 C 161.040 254.803,161.528 255.097,161.686 255.346 C 161.882 255.658,162.195 255.556,162.686 255.022 C 163.248 254.409,163.259 254.350,162.736 254.741 C 162.285 255.079,161.988 255.104,161.812 254.819 C 161.669 254.589,161.158 254.421,160.676 254.446 C 159.863 254.489,159.858 254.507,160.600 254.693 M134.400 255.318 L 133.400 255.739 134.334 255.902 C 135.350 256.079,135.764 255.864,135.542 255.274 C 135.456 255.045,135.008 255.062,134.400 255.318 M231.575 255.676 C 231.039 256.112,230.839 256.344,231.131 256.192 C 231.424 256.039,232.137 255.787,232.716 255.632 C 233.476 255.429,233.600 255.285,233.160 255.117 C 232.825 254.988,232.112 255.240,231.575 255.676 M130.617 256.372 C 130.216 257.021,131.087 257.218,131.604 256.596 C 132.006 256.111,131.981 256.000,131.473 256.000 C 131.129 256.000,130.744 256.168,130.617 256.372 M121.351 256.945 C 121.556 257.535,121.463 257.634,120.905 257.421 C 120.374 257.219,120.313 257.266,120.658 257.614 C 121.515 258.478,122.453 257.936,121.719 257.000 C 121.156 256.281,121.119 256.276,121.351 256.945 M128.216 256.939 C 127.640 257.360,127.593 257.549,128.001 257.801 C 128.346 258.014,128.427 257.967,128.238 257.662 C 128.069 257.388,128.207 257.200,128.576 257.200 C 128.919 257.200,129.200 257.020,129.200 256.800 C 129.200 256.280,129.098 256.294,128.216 256.939 M171.862 256.900 C 171.964 257.065,172.397 257.200,172.824 257.200 C 173.251 257.200,173.600 257.065,173.600 256.900 C 173.600 256.735,173.167 256.600,172.638 256.600 C 172.109 256.600,171.760 256.735,171.862 256.900 M174.000 257.454 C 174.000 257.753,174.256 257.877,174.600 257.745 C 174.930 257.618,175.200 257.384,175.200 257.224 C 175.200 257.064,174.930 256.933,174.600 256.933 C 174.270 256.933,174.000 257.168,174.000 257.454 M221.500 257.476 C 220.484 257.741,220.641 258.284,221.700 258.166 C 222.195 258.112,222.746 258.052,222.924 258.033 C 223.102 258.015,223.136 257.820,223.000 257.600 C 222.742 257.183,222.649 257.175,221.500 257.476 M191.108 263.026 C 190.787 263.347,192.040 264.355,193.800 265.192 C 194.460 265.506,195.163 265.844,195.362 265.943 C 195.561 266.042,195.610 265.939,195.470 265.714 C 195.331 265.489,194.628 265.062,193.909 264.766 C 193.189 264.469,192.327 263.894,191.994 263.486 C 191.661 263.079,191.262 262.871,191.108 263.026 " stroke="none" fill="#f8f4fc" fill-rule="evenodd"></path><path id="path4" d="M142.981 134.224 C 144.324 134.921,144.270 134.918,144.505 134.300 C 144.631 133.966,144.226 133.775,143.283 133.724 L 141.871 133.648 142.981 134.224 M161.335 137.868 C 161.960 138.195,162.575 138.359,162.702 138.231 C 162.829 138.104,162.713 138.000,162.443 138.000 C 162.173 138.000,162.036 137.865,162.138 137.700 C 162.240 137.535,161.846 137.371,161.262 137.336 L 160.200 137.272 161.335 137.868 M134.920 142.000 C 134.920 143.210,134.995 143.705,135.087 143.100 C 135.178 142.495,135.178 141.505,135.087 140.900 C 134.995 140.295,134.920 140.790,134.920 142.000 M228.832 141.162 C 228.801 142.099,228.821 142.105,229.600 141.400 C 230.503 140.583,230.704 140.050,229.839 140.768 C 229.408 141.125,229.230 141.113,229.070 140.717 C 228.956 140.433,228.849 140.633,228.832 141.162 M175.853 144.594 C 175.988 144.946,176.191 145.142,176.304 145.029 C 176.417 144.916,177.025 145.191,177.655 145.639 C 178.285 146.088,178.800 146.295,178.800 146.101 C 178.800 145.906,178.082 145.344,177.203 144.850 C 175.927 144.133,175.656 144.081,175.853 144.594 M214.101 149.381 C 214.266 149.576,214.086 150.107,213.701 150.561 C 213.252 151.089,213.216 151.228,213.600 150.947 C 213.930 150.705,214.445 150.432,214.744 150.339 C 215.156 150.211,215.108 150.033,214.544 149.599 C 214.135 149.284,213.935 149.186,214.101 149.381 M185.200 151.216 C 186.190 152.086,187.180 152.793,187.400 152.786 C 187.620 152.780,187.266 152.377,186.614 151.891 C 185.961 151.405,185.156 150.691,184.825 150.304 C 184.493 149.917,184.037 149.608,183.811 149.617 C 183.585 149.626,184.210 150.346,185.200 151.216 M132.579 152.766 C 132.703 152.967,132.579 153.223,132.302 153.334 C 132.026 153.446,132.227 153.551,132.749 153.568 C 133.548 153.595,133.619 153.505,133.200 153.000 C 132.656 152.345,132.216 152.179,132.579 152.766 M265.742 152.893 C 265.620 153.091,265.628 153.361,265.760 153.493 C 265.892 153.625,266.000 153.501,266.000 153.218 C 266.000 152.801,266.117 152.799,266.610 153.208 C 266.945 153.486,267.335 153.598,267.476 153.457 C 267.618 153.316,267.513 153.200,267.243 153.200 C 266.973 153.200,266.845 153.050,266.959 152.867 C 267.072 152.683,266.895 152.533,266.565 152.533 C 266.235 152.533,265.865 152.695,265.742 152.893 M272.611 154.322 C 272.357 154.576,272.763 155.200,273.181 155.200 C 273.364 155.200,273.607 154.960,273.719 154.667 C 273.909 154.171,273.034 153.899,272.611 154.322 M274.933 155.364 C 274.933 155.705,275.460 155.989,276.267 156.084 C 277.000 156.169,277.600 156.096,277.600 155.920 C 277.600 155.744,277.150 155.600,276.600 155.600 C 276.050 155.600,275.600 155.420,275.600 155.200 C 275.600 154.980,275.450 154.800,275.267 154.800 C 275.083 154.800,274.933 155.054,274.933 155.364 M124.583 155.627 C 124.438 155.862,124.058 155.954,123.739 155.832 C 123.415 155.707,123.266 155.784,123.403 156.005 C 123.762 156.585,124.630 156.486,125.200 155.800 C 125.514 155.422,125.541 155.200,125.273 155.200 C 125.039 155.200,124.728 155.392,124.583 155.627 M133.633 158.546 C 134.440 159.251,135.752 159.673,135.251 159.065 C 134.949 158.699,134.424 158.400,134.084 158.400 C 133.745 158.400,133.542 158.466,133.633 158.546 M278.406 160.100 C 278.411 160.828,278.486 160.885,278.800 160.400 C 279.301 159.624,279.301 159.200,278.800 159.200 C 278.580 159.200,278.403 159.605,278.406 160.100 M194.856 160.766 C 195.375 161.187,195.866 161.465,195.948 161.385 C 196.189 161.145,194.897 160.000,194.384 160.000 C 194.124 160.000,194.336 160.345,194.856 160.766 M126.744 161.300 C 126.498 163.484,126.562 166.388,126.846 165.939 C 127.111 165.521,127.189 165.516,127.194 165.913 C 127.197 166.194,126.930 166.529,126.600 166.655 C 125.754 166.980,125.835 168.399,126.700 168.406 C 127.127 168.410,127.230 168.527,126.966 168.706 C 126.431 169.068,126.423 173.233,126.958 172.902 C 127.184 172.763,127.209 172.976,127.021 173.434 C 126.598 174.461,126.324 180.345,126.640 181.600 C 126.877 182.540,126.911 182.552,127.217 181.800 C 127.713 180.577,127.632 163.921,127.127 163.312 C 126.843 162.970,126.838 162.800,127.114 162.800 C 127.340 162.800,127.435 162.455,127.324 162.033 C 127.176 161.466,127.368 161.219,128.062 161.087 C 128.913 160.925,128.898 160.904,127.900 160.854 C 127.283 160.824,126.775 161.020,126.744 161.300 M120.632 163.148 C 120.509 163.347,120.677 163.732,121.004 164.004 C 121.489 164.406,121.600 164.381,121.600 163.873 C 121.600 163.126,120.948 162.638,120.632 163.148 M201.089 163.605 C 200.326 164.496,200.184 164.981,200.798 164.601 C 201.190 164.359,202.146 162.800,201.903 162.800 C 201.834 162.800,201.468 163.162,201.089 163.605 M278.200 166.238 C 278.200 166.767,278.335 167.200,278.500 167.200 C 278.665 167.200,278.800 166.851,278.800 166.424 C 278.800 165.997,278.665 165.564,278.500 165.462 C 278.335 165.360,278.200 165.709,278.200 166.238 M121.200 174.624 C 121.200 181.086,121.093 182.787,120.700 182.565 C 120.300 182.339,120.300 182.390,120.700 182.821 C 121.338 183.509,121.436 211.600,120.800 211.600 C 120.580 211.600,120.400 211.791,120.400 212.024 C 120.400 212.257,120.568 212.343,120.774 212.216 C 120.980 212.089,121.221 212.573,121.310 213.292 C 121.399 214.012,121.501 203.755,121.536 190.500 C 121.571 177.245,121.510 166.400,121.400 166.400 C 121.290 166.400,121.200 170.101,121.200 174.624 M272.854 169.876 C 272.825 171.238,272.935 172.436,273.100 172.538 C 273.265 172.640,273.347 171.886,273.283 170.862 C 273.084 167.688,272.911 167.291,272.854 169.876 M278.544 179.200 C 278.544 181.290,278.612 182.145,278.694 181.100 C 278.776 180.055,278.776 178.345,278.694 177.300 C 278.612 176.255,278.544 177.110,278.544 179.200 M127.083 178.495 C 126.987 178.993,126.905 178.680,126.901 177.800 C 126.896 176.920,126.975 176.513,127.075 176.895 C 127.175 177.278,127.179 177.998,127.083 178.495 M272.400 180.867 C 272.400 182.504,272.546 183.067,272.970 183.067 C 273.284 183.067,273.515 182.737,273.485 182.333 C 273.455 181.930,273.326 181.600,273.200 181.600 C 273.074 181.600,272.926 181.024,272.873 180.321 C 272.709 178.175,272.400 178.532,272.400 180.867 M126.645 183.127 C 126.301 183.683,126.417 197.563,126.767 197.779 C 126.948 197.891,127.089 194.567,127.081 190.391 C 127.073 186.216,127.017 182.800,126.957 182.800 C 126.896 182.800,126.756 182.947,126.645 183.127 M278.493 186.400 C 278.493 187.170,278.575 187.485,278.676 187.100 C 278.776 186.715,278.776 186.085,278.676 185.700 C 278.575 185.315,278.493 185.630,278.493 186.400 M278.537 191.000 C 278.539 192.760,278.609 193.430,278.693 192.489 C 278.778 191.549,278.777 190.109,278.691 189.289 C 278.605 188.470,278.536 189.240,278.537 191.000 M273.293 190.400 C 273.293 191.170,273.375 191.485,273.476 191.100 C 273.576 190.715,273.576 190.085,273.476 189.700 C 273.375 189.315,273.293 189.630,273.293 190.400 M263.709 192.400 C 263.709 193.390,263.787 193.795,263.882 193.300 C 263.978 192.805,263.978 191.995,263.882 191.500 C 263.787 191.005,263.709 191.410,263.709 192.400 M264.124 196.600 C 264.126 197.920,264.201 198.412,264.290 197.693 C 264.379 196.974,264.377 195.894,264.286 195.293 C 264.195 194.692,264.122 195.280,264.124 196.600 M278.493 195.600 C 278.493 196.370,278.575 196.685,278.676 196.300 C 278.776 195.915,278.776 195.285,278.676 194.900 C 278.575 194.515,278.493 194.830,278.493 195.600 M126.719 199.600 C 126.202 202.604,126.323 205.200,126.980 205.200 C 127.321 205.200,127.600 205.009,127.600 204.776 C 127.600 204.543,127.420 204.464,127.200 204.600 C 126.966 204.745,126.800 204.330,126.800 203.600 C 126.800 202.870,126.966 202.455,127.200 202.600 C 127.645 202.875,127.662 201.287,127.232 199.400 L 126.959 198.200 126.719 199.600 M120.493 200.800 C 120.493 201.570,120.575 201.885,120.676 201.500 C 120.776 201.115,120.776 200.485,120.676 200.100 C 120.575 199.715,120.493 200.030,120.493 200.800 M278.542 207.800 C 278.541 209.780,278.608 210.640,278.692 209.712 C 278.776 208.784,278.777 207.164,278.695 206.112 C 278.612 205.060,278.543 205.820,278.542 207.800 M120.520 208.000 C 120.520 209.210,120.595 209.705,120.687 209.100 C 120.778 208.495,120.778 207.505,120.687 206.900 C 120.595 206.295,120.520 206.790,120.520 208.000 M272.660 212.061 C 272.184 218.772,272.299 221.214,273.080 220.914 C 273.505 220.751,273.580 220.593,273.280 220.493 C 273.016 220.405,272.800 220.068,272.800 219.743 C 272.800 219.418,272.935 219.236,273.100 219.338 C 273.486 219.576,273.468 215.552,273.080 214.928 C 272.919 214.668,272.970 214.342,273.193 214.204 C 273.683 213.902,273.746 208.400,273.260 208.400 C 273.073 208.400,272.803 210.048,272.660 212.061 M126.528 212.400 C 126.528 213.830,126.601 214.415,126.689 213.700 C 126.778 212.985,126.778 211.815,126.689 211.100 C 126.601 210.385,126.528 210.970,126.528 212.400 M127.309 212.400 C 127.309 213.390,127.387 213.795,127.482 213.300 C 127.578 212.805,127.578 211.995,127.482 211.500 C 127.387 211.005,127.309 211.410,127.309 212.400 M278.263 214.700 C 278.162 214.865,278.216 216.440,278.384 218.200 L 278.688 221.400 278.744 217.900 C 278.797 214.607,278.703 213.983,278.263 214.700 M121.057 216.640 C 120.918 217.651,120.978 218.776,121.190 219.140 C 121.468 219.615,121.579 219.099,121.588 217.300 C 121.602 214.340,121.405 214.095,121.057 216.640 M121.147 226.700 C 121.117 230.165,121.038 234.301,120.970 235.891 C 120.903 237.481,121.017 238.887,121.224 239.015 C 121.455 239.157,121.600 235.608,121.600 229.824 C 121.600 224.641,121.510 220.400,121.400 220.400 C 121.290 220.400,121.176 223.235,121.147 226.700 M272.400 225.200 C 272.400 226.730,272.550 227.555,272.800 227.400 C 273.020 227.264,273.200 226.274,273.200 225.200 C 273.200 224.126,273.020 223.136,272.800 223.000 C 272.550 222.845,272.400 223.670,272.400 225.200 M135.314 225.400 C 135.317 226.500,135.395 226.903,135.487 226.295 C 135.579 225.686,135.577 224.786,135.482 224.295 C 135.387 223.803,135.311 224.300,135.314 225.400 M278.348 225.100 C 278.103 226.528,278.280 238.673,278.543 238.511 C 278.732 238.395,278.822 235.262,278.743 231.551 C 278.616 225.562,278.525 224.072,278.348 225.100 M127.328 231.600 C 127.328 233.030,127.401 233.615,127.489 232.900 C 127.578 232.185,127.578 231.015,127.489 230.300 C 127.401 229.585,127.328 230.170,127.328 231.600 M126.509 231.200 C 126.509 232.190,126.587 232.595,126.682 232.100 C 126.778 231.605,126.778 230.795,126.682 230.300 C 126.587 229.805,126.509 230.210,126.509 231.200 M253.549 232.665 C 253.053 233.267,253.084 233.286,253.874 232.865 C 254.969 232.282,256.087 232.227,255.200 232.800 C 254.870 233.013,254.791 233.191,255.024 233.194 C 255.256 233.197,255.796 232.936,256.224 232.613 C 256.953 232.061,256.912 232.025,255.549 232.013 C 254.670 232.005,253.882 232.262,253.549 232.665 M249.210 232.846 C 248.401 233.168,248.328 233.310,248.810 233.613 C 249.212 233.867,249.540 233.799,249.840 233.399 C 250.081 233.076,250.425 232.945,250.604 233.106 C 250.782 233.268,250.799 233.175,250.641 232.900 C 250.482 232.625,250.318 232.411,250.276 232.425 C 250.234 232.439,249.754 232.629,249.210 232.846 M273.200 233.167 C 273.200 233.588,272.996 234.001,272.747 234.084 C 272.473 234.176,272.404 234.583,272.574 235.118 C 273.039 236.584,273.533 236.112,273.533 234.200 C 273.533 233.210,273.458 232.400,273.367 232.400 C 273.275 232.400,273.200 232.745,273.200 233.167 M144.000 233.621 C 143.154 233.874,143.123 233.932,143.800 233.995 C 144.240 234.036,145.187 234.130,145.905 234.204 C 146.695 234.285,147.112 234.182,146.964 233.942 C 146.829 233.724,146.489 233.634,146.208 233.741 C 145.927 233.849,145.541 233.799,145.349 233.629 C 145.157 233.460,144.550 233.456,144.000 233.621 M154.176 235.639 C 153.830 236.199,154.702 236.400,155.148 235.862 C 155.480 235.463,155.438 235.333,154.976 235.333 C 154.640 235.333,154.280 235.471,154.176 235.639 M126.459 236.600 C 126.441 237.040,126.690 237.749,127.013 238.176 C 127.336 238.604,127.600 238.775,127.600 238.556 C 127.600 238.338,127.437 237.989,127.239 237.780 C 127.040 237.571,126.791 237.040,126.685 236.600 L 126.493 235.800 126.459 236.600 M272.400 237.400 C 272.400 238.022,272.627 238.400,273.000 238.400 C 273.330 238.400,273.600 238.220,273.600 238.000 C 273.600 237.780,273.420 237.600,273.200 237.600 C 272.980 237.600,272.800 237.409,272.800 237.176 C 272.800 236.943,273.008 236.881,273.262 237.038 C 273.548 237.215,273.615 237.148,273.438 236.862 C 272.949 236.070,272.400 236.355,272.400 237.400 M162.611 238.534 C 163.527 239.153,164.800 239.655,164.800 239.398 C 164.800 239.177,162.552 238.000,162.131 238.000 C 161.961 238.000,162.177 238.240,162.611 238.534 M272.800 241.600 C 272.800 242.260,272.980 242.800,273.200 242.800 C 273.420 242.800,273.600 242.260,273.600 241.600 C 273.600 240.940,273.420 240.400,273.200 240.400 C 272.980 240.400,272.800 240.940,272.800 241.600 M127.200 241.920 C 127.200 242.316,126.975 242.867,126.700 243.144 C 126.299 243.548,126.339 243.595,126.900 243.381 C 127.509 243.149,127.956 241.200,127.400 241.200 C 127.290 241.200,127.200 241.524,127.200 241.920 M278.200 242.367 C 278.200 244.051,278.621 244.225,278.732 242.586 C 278.783 241.824,278.684 241.200,278.513 241.200 C 278.341 241.200,278.200 241.725,278.200 242.367 M224.800 242.436 C 224.136 242.979,224.069 243.115,224.600 242.840 C 225.905 242.166,226.628 241.612,226.200 241.615 C 225.980 241.617,225.350 241.986,224.800 242.436 M120.406 244.167 C 120.409 244.625,120.574 245.255,120.771 245.567 C 120.984 245.903,120.978 246.532,120.756 247.115 C 120.495 247.802,120.536 248.286,120.891 248.725 C 121.309 249.241,121.303 249.295,120.860 249.029 C 120.419 248.763,120.407 248.865,120.794 249.589 C 121.082 250.126,121.147 250.893,120.961 251.537 C 120.416 253.421,120.442 254.063,121.045 253.563 C 121.794 252.941,121.667 243.333,120.910 243.333 C 120.629 243.333,120.403 243.708,120.406 244.167 M220.869 245.031 C 219.880 245.813,219.408 246.400,219.769 246.400 C 220.116 246.400,220.400 246.220,220.400 246.000 C 220.400 245.780,220.651 245.600,220.957 245.600 C 221.264 245.600,221.620 245.326,221.748 244.990 C 221.877 244.655,222.391 244.217,222.891 244.016 C 223.391 243.815,223.530 243.653,223.200 243.656 C 222.870 243.659,221.821 244.278,220.869 245.031 M126.334 245.577 C 126.230 246.668,126.338 247.200,126.664 247.200 C 127.000 247.200,127.078 246.736,126.918 245.700 C 126.607 243.686,126.516 243.667,126.334 245.577 M278.501 248.200 C 278.505 249.080,278.587 249.393,278.683 248.895 C 278.779 248.398,278.775 247.678,278.675 247.295 C 278.575 246.913,278.496 247.320,278.501 248.200 M145.596 247.796 C 145.868 248.123,146.253 248.291,146.452 248.168 C 146.962 247.852,146.474 247.200,145.727 247.200 C 145.219 247.200,145.194 247.311,145.596 247.796 M147.200 247.571 C 147.200 248.047,148.299 248.264,149.700 248.065 C 151.464 247.815,150.967 247.200,149.000 247.200 C 148.010 247.200,147.200 247.367,147.200 247.571 M151.200 247.644 C 151.200 247.837,151.920 247.966,152.800 247.932 C 153.680 247.897,154.400 247.730,154.400 247.559 C 154.400 247.389,153.680 247.260,152.800 247.272 C 151.920 247.284,151.200 247.452,151.200 247.644 M154.800 247.600 C 154.800 247.820,155.295 247.987,155.900 247.972 C 156.875 247.947,156.909 247.905,156.200 247.600 C 155.107 247.131,154.800 247.131,154.800 247.600 M139.500 248.229 C 138.895 248.557,138.400 248.893,138.400 248.975 C 138.400 249.293,140.227 248.628,140.729 248.128 C 141.420 247.437,140.877 247.482,139.500 248.229 M135.396 248.807 C 135.258 249.030,134.979 249.110,134.776 248.985 C 134.572 248.859,134.090 248.942,133.703 249.168 C 133.113 249.514,133.181 249.567,134.125 249.501 C 135.031 249.437,136.677 248.400,135.873 248.400 C 135.749 248.400,135.534 248.583,135.396 248.807 M168.489 248.737 C 168.117 248.973,168.250 249.185,168.974 249.516 C 169.599 249.800,170.060 249.826,170.209 249.585 C 170.340 249.373,170.066 249.200,169.600 249.200 C 169.134 249.200,168.864 249.020,169.000 248.800 C 169.297 248.320,169.171 248.304,168.489 248.737 M272.671 248.802 C 272.993 249.144,273.024 249.611,272.768 250.285 C 272.499 250.993,272.524 251.225,272.859 251.114 C 273.868 250.777,274.016 249.236,273.085 248.757 C 272.380 248.395,272.296 248.404,272.671 248.802 M267.600 249.600 C 266.933 249.814,266.833 249.934,267.300 249.960 C 267.685 249.982,268.000 250.174,268.000 250.387 C 268.000 250.601,268.240 250.683,268.533 250.570 C 268.827 250.458,269.067 250.103,269.067 249.783 C 269.067 249.142,269.040 249.139,267.600 249.600 M223.984 250.830 C 223.576 251.592,223.609 251.623,224.381 251.210 C 224.844 250.963,225.117 250.589,224.988 250.380 C 224.646 249.828,224.480 249.903,223.984 250.830 M222.203 251.205 C 222.337 251.422,222.177 251.600,221.847 251.600 C 221.517 251.600,221.152 251.754,221.036 251.942 C 220.919 252.130,221.271 252.199,221.818 252.094 C 223.043 251.860,223.403 251.363,222.577 251.046 C 222.223 250.911,222.063 250.978,222.203 251.205 M149.519 254.300 C 149.227 254.651,149.236 254.800,149.551 254.800 C 149.798 254.800,150.000 254.639,150.000 254.443 C 150.000 254.243,150.743 254.274,151.677 254.511 C 152.899 254.821,153.395 254.815,153.504 254.488 C 153.608 254.175,153.963 254.158,154.682 254.431 C 155.747 254.836,156.236 254.705,155.869 254.112 C 155.618 253.706,153.959 253.731,153.280 254.151 C 153.016 254.314,152.800 254.288,152.800 254.094 C 152.800 253.554,149.994 253.731,149.519 254.300 M246.693 253.849 C 246.554 254.074,245.807 254.227,245.033 254.189 C 244.259 254.150,243.712 254.257,243.817 254.427 C 244.068 254.833,251.935 254.829,252.186 254.423 C 252.292 254.251,251.979 254.142,251.490 254.180 C 251.000 254.218,250.420 254.153,250.200 254.036 C 249.475 253.649,248.665 253.644,247.960 254.022 C 247.488 254.274,247.213 254.240,247.106 253.917 C 247.003 253.609,246.857 253.585,246.693 253.849 M139.417 254.640 C 138.933 255.124,138.646 255.170,138.236 254.830 C 137.826 254.489,137.641 254.516,137.478 254.940 C 137.150 255.795,139.036 255.644,139.845 254.750 C 140.671 253.837,140.312 253.745,139.417 254.640 M160.600 254.693 C 161.040 254.803,161.528 255.097,161.686 255.346 C 161.882 255.658,162.195 255.556,162.686 255.022 C 163.248 254.409,163.259 254.350,162.736 254.741 C 162.285 255.079,161.988 255.104,161.812 254.819 C 161.669 254.589,161.158 254.421,160.676 254.446 C 159.863 254.489,159.858 254.507,160.600 254.693 M134.400 255.318 L 133.400 255.739 134.334 255.902 C 135.350 256.079,135.764 255.864,135.542 255.274 C 135.456 255.045,135.008 255.062,134.400 255.318 M231.575 255.676 C 231.039 256.112,230.839 256.344,231.131 256.192 C 231.424 256.039,232.137 255.787,232.716 255.632 C 233.476 255.429,233.600 255.285,233.160 255.117 C 232.825 254.988,232.112 255.240,231.575 255.676 M130.617 256.372 C 130.216 257.021,131.087 257.218,131.604 256.596 C 132.006 256.111,131.981 256.000,131.473 256.000 C 131.129 256.000,130.744 256.168,130.617 256.372 M121.351 256.945 C 121.556 257.535,121.463 257.634,120.905 257.421 C 120.374 257.219,120.313 257.266,120.658 257.614 C 121.515 258.478,122.453 257.936,121.719 257.000 C 121.156 256.281,121.119 256.276,121.351 256.945 M128.216 256.939 C 127.640 257.360,127.593 257.549,128.001 257.801 C 128.346 258.014,128.427 257.967,128.238 257.662 C 128.069 257.388,128.207 257.200,128.576 257.200 C 128.919 257.200,129.200 257.020,129.200 256.800 C 129.200 256.280,129.098 256.294,128.216 256.939 M171.862 256.900 C 171.964 257.065,172.397 257.200,172.824 257.200 C 173.251 257.200,173.600 257.065,173.600 256.900 C 173.600 256.735,173.167 256.600,172.638 256.600 C 172.109 256.600,171.760 256.735,171.862 256.900 M174.000 257.454 C 174.000 257.753,174.256 257.877,174.600 257.745 C 174.930 257.618,175.200 257.384,175.200 257.224 C 175.200 257.064,174.930 256.933,174.600 256.933 C 174.270 256.933,174.000 257.168,174.000 257.454 M221.500 257.476 C 220.484 257.741,220.641 258.284,221.700 258.166 C 222.195 258.112,222.746 258.052,222.924 258.033 C 223.102 258.015,223.136 257.820,223.000 257.600 C 222.742 257.183,222.649 257.175,221.500 257.476 M191.108 263.026 C 190.787 263.347,192.040 264.355,193.800 265.192 C 194.460 265.506,195.163 265.844,195.362 265.943 C 195.561 266.042,195.610 265.939,195.470 265.714 C 195.331 265.489,194.628 265.062,193.909 264.766 C 193.189 264.469,192.327 263.894,191.994 263.486 C 191.661 263.079,191.262 262.871,191.108 263.026 " stroke="none" fill="#f8f4fc" fill-rule="evenodd"></path></g></svg>
